<?xml version="1.0" encoding="utf-8"?>
<!-- Generator: Adobe Illustrator 21.0.2, SVG Export Plug-In . SVG Version: 6.00 Build 0)  -->
<svg version="1.1" id="Capa_1" xmlns="http://www.w3.org/2000/svg" xmlns:xlink="http://www.w3.org/1999/xlink" x="0px" y="0px"
	 viewBox="0 0 30 30" style="enable-background:new 0 0 30 30;" xml:space="preserve">
<style type="text/css">
	.st0{fill:#FFFFFF;}
</style>
<path class="st0" d="M15.1,0.3c-6,0-10,4-10,9.8c0,7.8,7.2,17.5,9.1,19.4c0.1,0.1,0.3,0.2,0.5,0.2l0,0c0.2,0,0.4-0.1,0.5-0.3
	c1-1.1,9.6-11.1,9.6-19.3C24.9,3.3,20,0.3,15.1,0.3z M14.7,27.8c-2.3-2.7-8.1-11.1-8.1-17.7c0-5.1,3.3-8.3,8.5-8.3
	c3.8,0,8.3,2.2,8.3,8.3C23.4,16,18.2,23.8,14.7,27.8z M15,6.1c-2.2,0-4,1.8-4,4s1.8,4,4,4s4-1.8,4-4S17.2,6.1,15,6.1z M15,12.6
	c-1.4,0-2.5-1.1-2.5-2.5s1.1-2.5,2.5-2.5s2.5,1.1,2.5,2.5S16.4,12.6,15,12.6z"/>
</svg>
