<?xml version="1.0" encoding="utf-8"?>
<!-- Generator: Adobe Illustrator 21.0.2, SVG Export Plug-In . SVG Version: 6.00 Build 0)  -->
<svg version="1.1" id="Layer_1" xmlns:sketch="http://www.bohemiancoding.com/sketch/ns"
	 xmlns="http://www.w3.org/2000/svg" xmlns:xlink="http://www.w3.org/1999/xlink" x="0px" y="0px" viewBox="0 0 32 32"
	 style="enable-background:new 0 0 32 32;" xml:space="preserve">
<style type="text/css">
	.st0{fill:#222222;}
</style>
<title></title>
<desc></desc>
<g id="Icons-for-Export">
	<g id="Apps-Inactive">
		<g id="Shapes">
			<path id="Plate" class="st0" d="M29.8,23H32v-2H0v2h2.2c1.3,2.9,3.5,5.4,6.3,7H4v2h24v-2h-4.5C26.3,28.4,28.5,25.9,29.8,23z
				 M27.5,23H4.5c2.2,4.2,6.5,7,11.5,7S25.4,27.2,27.5,23z"/>
			<path id="Tomato" class="st0" d="M30,21c-0.3-3.9-3.5-7-7.5-7s-7.2,3.1-7.5,7h2c0.3-2.8,2.6-5,5.5-5s5.2,2.2,5.5,5H30z M22.5,21
				L21,18h3L22.5,21z M23,21.5l3-1.5v3L23,21.5z M22,21.5L19,20v3L22,21.5z"/>
			<path id="Rectangle-5" class="st0" d="M20,15.9V7.5C20,3.4,16.6,0,12.5,0C8.4,0,5,3.4,5,7.5v6.7l2,0.2V7.5C7,4.5,9.5,2,12.5,2
				c3,0,5.5,2.5,5.5,5.5v8.2L20,15.9z M18,7v2h-6V7H18z M18,11v2h-6v-2H18z"/>
			<path id="Cheese" class="st0" d="M11.9,17.1c-0.2,0.5-0.8,0.9-1.4,0.9C9.7,18,9,17.3,9,16.5c0-0.1,0-0.1,0-0.2l-6-1.7V22H1v-8.5
				V12l14,4v1.5V22h-2v-4.6L11.9,17.1L11.9,17.1L11.9,17.1z M5,19c0.6,0,1-0.4,1-1s-0.4-1-1-1s-1,0.4-1,1S4.4,19,5,19L5,19L5,19z
				 M10.5,23c0.8,0,1.5-0.7,1.5-1.5S11.3,20,10.5,20S9,20.7,9,21.5S9.7,23,10.5,23L10.5,23L10.5,23z"/>
		</g>
	</g>
</g>
</svg>
