<?xml version="1.0" encoding="utf-8"?>
<!-- Generator: Adobe Illustrator 21.0.2, SVG Export Plug-In . SVG Version: 6.00 Build 0)  -->
<svg version="1.1" id="Layer_1_1_" xmlns="http://www.w3.org/2000/svg" xmlns:xlink="http://www.w3.org/1999/xlink" x="0px" y="0px"
	 viewBox="0 0 64 64" style="enable-background:new 0 0 64 64;" xml:space="preserve">
<style type="text/css">
	.st0{fill:#111111;}
</style>
<g>
	<g>
		<path class="st0" d="M39,63H18c-3.6,0-6-2.4-6-6V23h2v34c0,2.5,1.5,4,4,4h21c2.5,0,4-1.5,4-4v-7h7c2.4,0,5-2.6,5-5V34
			c0-2.4-2.6-5-5-5h-7v-6h2v4h5c3.5,0,7,3.5,7,7v11c0,3.5-3.5,7-7,7h-5v5C45,60.6,42.6,63,39,63z"/>
	</g>
	<g>
		<path class="st0" d="M49,48h-6V31h6c2.5,0,4,1.5,4,4v9c0,1.3-0.3,2.2-1,2.9C51.3,47.6,50.3,48,49,48z M45,46h4
			c0.7,0,1.3-0.2,1.6-0.5s0.5-0.8,0.4-1.5v-9c0-1.4-0.6-2-2-2h-4V46z"/>
	</g>
	<g>
		<path class="st0" d="M20,59c-2.4,0-4-1.6-4-4V23h2v32c0,1.3,0.7,2,2,2V59z"/>
	</g>
	<g>
		<path class="st0" d="M31,37c-2.2,0-4-1.8-4-4v-9H13v-2h16v11c0,1.1,0.9,2,2,2c1.1,0,2-0.9,2-2V22h11v2h-9v9C35,35.2,33.2,37,31,37
			z"/>
	</g>
	<g>
		<path class="st0" d="M37,59v-2c1.3,0,2-0.7,2-2V23h2v32C41,57.4,39.4,59,37,59z"/>
	</g>
	<g>
		<rect x="22" y="57" class="st0" width="9" height="2"/>
	</g>
	<g>
		<rect x="33" y="57" class="st0" width="2" height="2"/>
	</g>
	<g>
		<path class="st0" d="M13,24c-2.5,0-6-2.5-6-7c0-4.4,3.6-8,8-8s8,3.6,8,8h-2c0-3.3-2.7-6-6-6s-6,2.7-6,6s2.6,5,4,5V24z"/>
	</g>
	<g>
		<path class="st0" d="M38.8,18.6l-1.6-1.2C38.4,15.8,39,14,39,12c0-5-4-9-9-9s-9,4-9,9h-2c0-6.1,4.9-11,11-11s11,4.9,11,11
			C41,14.4,40.2,16.7,38.8,18.6z"/>
	</g>
	<g>
		<path class="st0" d="M43,24v-2c2.2,0,4-1.8,4-4s-1.8-4-4-4c-0.9,0-1.7,0.3-2.4,0.8l-1.2-1.6c1-0.8,2.3-1.2,3.6-1.2
			c3.3,0,6,2.7,6,6S46.3,24,43,24z"/>
	</g>
	<g>
		<path class="st0" d="M25,12h-2c0-3.9,3.1-7,7-7v2C27.2,7,25,9.2,25,12z"/>
	</g>
	<g>
		<path class="st0" d="M12,17h-2c0-2.8,2.2-5,5-5v2C13.3,14,12,15.3,12,17z"/>
	</g>
</g>
</svg>
