<svg xmlns="http://www.w3.org/2000/svg" xmlns:xlink="http://www.w3.org/1999/xlink" viewBox="0 0 219 92.15"><defs><style>.cls-1{fill:#3ba01f;}.cls-2{font-size:18px;font-family:HelveticaNeue, Helvetica Neue;}.cls-2,.cls-7{fill:#fff;}.cls-3{letter-spacing:0.02em;}.cls-4{letter-spacing:0.02em;}.cls-5{fill:#e83628;}.cls-6,.cls-7{opacity:0.2;isolation:isolate;}.cls-8{fill:url(#linear-gradient);}</style><linearGradient id="linear-gradient" x1="-78.64" y1="-138.76" x2="-44.88" y2="-172.53" gradientTransform="matrix(1, 0, 0, -1, 244, -140.67)" gradientUnits="userSpaceOnUse"><stop offset="0" stop-color="#fff" stop-opacity="0"/><stop offset="1" stop-color="#fff" stop-opacity="0.1"/></linearGradient></defs><title>Asset 4color</title><g id="Layer_2" data-name="Layer 2"><g id="Layer_1-2" data-name="Layer 1"><rect class="cls-1" y="9.15" width="219" height="83" rx="12"/><text class="cls-2" transform="translate(85.99 35.62)"><tspan class="cls-3">O</tspan><tspan x="14" y="0">r</tspan><tspan class="cls-4" x="20" y="0">der</tspan><tspan class="cls-3"><tspan x="-65.44" y="20">Christmas Eve dinner </tspan><tspan x="-56.95" y="40">for December 24th!</tspan></tspan></text><path d="M203.09,13.27a6.32,6.32,0,0,1,.61-1.74A12.09,12.09,0,0,0,205,6.64c0-3.2-2.37-6.64-7.58-6.64-4.36,0-7.3,2.91-9.76,6.3a7.13,7.13,0,0,0-10.05-.81,3.89,3.89,0,0,0-.36.34A12.84,12.84,0,0,0,167.07,0c-5.21,0-7.58,3.44-7.58,6.64a12.09,12.09,0,0,0,1.29,4.89,6.32,6.32,0,0,1,.61,1.74,6.32,6.32,0,0,1-.61,1.74,12.09,12.09,0,0,0-1.29,4.9c0,3.19,2.37,6.63,7.58,6.63a9.13,9.13,0,0,0,3.92-.88,27.64,27.64,0,0,0-2,9.41.95.95,0,0,0,1.62.67,17.83,17.83,0,0,1,4.67-3.26l3.35,5a.93.93,0,0,0,.79.43,1.09,1.09,0,0,0,.26,0,.94.94,0,0,0,.68-.89c.08-4,.66-10.56,1.9-13.42,1.24,2.86,1.82,9.38,1.9,13.42a.94.94,0,0,0,.68.89,1.09,1.09,0,0,0,.26,0,.93.93,0,0,0,.79-.43l3.35-5a17.83,17.83,0,0,1,4.67,3.26,1,1,0,0,0,1.34,0,.93.93,0,0,0,.28-.67A27.12,27.12,0,0,0,193.73,26a11.8,11.8,0,0,0,3.68.58c5.21,0,7.58-3.44,7.58-6.63A12.09,12.09,0,0,0,203.7,15,6.32,6.32,0,0,1,203.09,13.27Z"/><ellipse class="cls-5" cx="182.24" cy="13.27" rx="5.69" ry="7.58"/><path class="cls-6" d="M184.56,6.18a10.26,10.26,0,0,1,1,4.72c0,4.75-2.13,7.58-5.69,7.58a5.32,5.32,0,0,1-2.32-.49,5,5,0,0,0,4.69,2.86c3.56,0,5.69-2.83,5.69-7.58C187.93,9.67,186.7,7.18,184.56,6.18Z"/><path class="cls-5" d="M178.57,34l-2.18-3.26a.94.94,0,0,0-1.14-.36A20.17,20.17,0,0,0,171,32.87a33.54,33.54,0,0,1,2.85-9.13,20.49,20.49,0,0,0,3-3.41,6.91,6.91,0,0,0,3.74,2.22A37.7,37.7,0,0,0,178.57,34Z"/><path class="cls-6" d="M174.13,27a4.56,4.56,0,0,1,1-1.43l0,0a4.54,4.54,0,0,1,4.76-1,14.05,14.05,0,0,1,.7-2,6.91,6.91,0,0,1-3.74-2.22,20.49,20.49,0,0,1-3,3.41A33.54,33.54,0,0,0,171,32.87c.46-.36.92-.66,1.35-.94A37.42,37.42,0,0,1,174.13,27Z"/><path class="cls-5" d="M193.49,32.88a20.87,20.87,0,0,0-4.26-2.48.94.94,0,0,0-1.14.36L185.91,34a37.7,37.7,0,0,0-2.07-11.47,7,7,0,0,0,3.34-1.78,15.11,15.11,0,0,0,4,4A28.61,28.61,0,0,1,193.49,32.88Z"/><path class="cls-6" d="M186.87,26.72a4.29,4.29,0,0,1,1.64-4.31,17.32,17.32,0,0,1-1.33-1.64,7,7,0,0,1-3.34,1.78A37.7,37.7,0,0,1,185.91,34l1.71-2.57A41.93,41.93,0,0,0,186.87,26.72Z"/><path class="cls-5" d="M197.41,24.65c-3.7,0-6.49-1.7-9-5.43,0,0,.05-.12.08-.18,5.41-.36,10.52.18,10.86,1.17a1,1,0,0,0,.9.64.81.81,0,0,0,.31-.05,1,1,0,0,0,.59-1.2c-.92-2.67-7.77-2.72-11.86-2.51a13.59,13.59,0,0,0,.5-3.42l4.48,1.45a.95.95,0,0,0,.58-1.8L191,12.06l4.14-2.74A.95.95,0,0,0,194,7.74l-4.44,2.94A10.09,10.09,0,0,0,188.74,8c2.27-3.23,4.9-6.12,8.67-6.12,4.19,0,5.68,2.55,5.68,4.74A10.27,10.27,0,0,1,202,10.77a6.91,6.91,0,0,0-.76,2.5,6.85,6.85,0,0,0,.76,2.5,10.27,10.27,0,0,1,1.13,4.14C203.09,22.09,201.6,24.65,197.41,24.65Z"/><path class="cls-7" d="M197.41,4.31c3.5,0,5.09,1.77,5.54,3.63a6.39,6.39,0,0,0,.14-1.3c0-2.19-1.49-4.74-5.68-4.74-3.77,0-6.4,2.89-8.67,6.12a10.35,10.35,0,0,1,.59,1.61C191.47,6.74,194,4.31,197.41,4.31Z"/><path class="cls-6" d="M196,22.75a5.54,5.54,0,0,0,4.87-2.12,1,1,0,0,1-.29.17.81.81,0,0,1-.31.05,1,1,0,0,1-.9-.64c-.34-1-5.45-1.53-10.86-1.17l-.06.14A9.57,9.57,0,0,0,196,22.75Z"/><path class="cls-5" d="M167,1.9c3.69,0,6.49,1.69,9,5.42,0,0,0,.12-.09.18-5.41.36-10.52-.18-10.86-1.17a1,1,0,0,0-.89-.64.81.81,0,0,0-.31,0,.94.94,0,0,0-.59,1.2c.92,2.67,7.77,2.72,11.86,2.51a13.16,13.16,0,0,0-.51,3.42l-4.48-1.45a.95.95,0,1,0-.58,1.8l3.9,1.27-4.13,2.73a.95.95,0,0,0,1,1.58h0l4.44-2.94a10.32,10.32,0,0,0,.85,2.66c-2.26,3.23-4.89,6.13-8.66,6.13-4.2,0-5.69-2.56-5.69-4.74a10.48,10.48,0,0,1,1.13-4.14,6.68,6.68,0,0,0,.77-2.5,6.74,6.74,0,0,0-.77-2.5,10.43,10.43,0,0,1-1.13-4.13C161.32,4.45,162.81,1.9,167,1.9Z"/><path class="cls-6" d="M167,22.23c-3.5,0-5.1-1.77-5.54-3.63a7.2,7.2,0,0,0-.15,1.31c0,2.18,1.49,4.74,5.69,4.74,3.77,0,6.4-2.9,8.66-6.13a11.49,11.49,0,0,1-.59-1.61C173,19.8,170.46,22.23,167,22.23Z"/><path class="cls-7" d="M168.43,3.79a5.53,5.53,0,0,0-4.86,2.12.77.77,0,0,1,.29-.17.81.81,0,0,1,.31,0,1,1,0,0,1,.89.64c.34,1,5.45,1.53,10.86,1.17a.61.61,0,0,0,.07-.14A9.59,9.59,0,0,0,168.43,3.79Z"/><path class="cls-8" d="M203.09,13.27a6.32,6.32,0,0,1,.61-1.74A12.09,12.09,0,0,0,205,6.64c0-3.2-2.37-6.64-7.58-6.64-4.36,0-7.3,2.91-9.76,6.3a7.13,7.13,0,0,0-10.05-.81,3.89,3.89,0,0,0-.36.34A12.84,12.84,0,0,0,167.07,0c-5.21,0-7.58,3.44-7.58,6.64a12.09,12.09,0,0,0,1.29,4.89,6.32,6.32,0,0,1,.61,1.74,6.32,6.32,0,0,1-.61,1.74,12.09,12.09,0,0,0-1.29,4.9c0,3.19,2.37,6.63,7.58,6.63a9.13,9.13,0,0,0,3.92-.88,27.64,27.64,0,0,0-2,9.41.95.95,0,0,0,1.62.67,17.83,17.83,0,0,1,4.67-3.26l3.35,5a.93.93,0,0,0,.79.43,1.09,1.09,0,0,0,.26,0,.94.94,0,0,0,.68-.89c.08-4,.66-10.56,1.9-13.42,1.24,2.86,1.82,9.38,1.9,13.42a.94.94,0,0,0,.68.89,1.09,1.09,0,0,0,.26,0,.93.93,0,0,0,.79-.43l3.35-5a17.83,17.83,0,0,1,4.67,3.26,1,1,0,0,0,1.34,0,.93.93,0,0,0,.28-.67A27.12,27.12,0,0,0,193.73,26a11.8,11.8,0,0,0,3.68.58c5.21,0,7.58-3.44,7.58-6.63A12.09,12.09,0,0,0,203.7,15,6.32,6.32,0,0,1,203.09,13.27Z"/></g></g></svg>