<?xml version="1.0" encoding="utf-8"?>
<!-- Generator: Adobe Illustrator 21.0.2, SVG Export Plug-In . SVG Version: 6.00 Build 0)  -->
<svg version="1.1" id="Layer_1" xmlns="http://www.w3.org/2000/svg" xmlns:xlink="http://www.w3.org/1999/xlink" x="0px" y="0px"
	 viewBox="0 0 12.5 18.3" style="enable-background:new 0 0 12.5 18.3;" xml:space="preserve">
<style type="text/css">
	.st0{fill:#FFFFFF;}
	.st1{fill:none;stroke:#FFFFFF;stroke-miterlimit:10;}
</style>
<g>
	<line class="st0" x1="5.1" y1="17.2" x2="5.1" y2="4.4"/>
	<g>
		<path class="st0" d="M6.2,17.2c0-4.3,0-8.5,0-12.8C6.2,3,4,3,4,4.4c0,4.3,0,8.5,0,12.8C4,18.7,6.2,18.7,6.2,17.2L6.2,17.2z"/>
	</g>
</g>
<g>
	<line class="st0" x1="7.1" y1="16.2" x2="7.1" y2="9"/>
	<g>
		<path class="st0" d="M8.2,16.2c0-2.4,0-4.8,0-7.2C8.2,7.6,6,7.6,6,9c0,2.4,0,4.8,0,7.2C6,17.7,8.2,17.7,8.2,16.2L8.2,16.2z"/>
	</g>
</g>
<g>
	<line class="st0" x1="9.2" y1="16.7" x2="9.2" y2="10.6"/>
	<g>
		<path class="st0" d="M10.3,16.7c0-2,0-4.1,0-6.1c0-1.4-2.2-1.5-2.2,0c0,2,0,4.1,0,6.1C8.1,18.2,10.3,18.2,10.3,16.7L10.3,16.7z"/>
	</g>
</g>
<g>
	<line class="st0" x1="11.1" y1="17.2" x2="11.3" y2="11.6"/>
	<g>
		<path class="st0" d="M12.2,17.2c0.1-1.9,0.1-3.7,0.2-5.6c0.1-1.4-2.2-1.4-2.2,0c-0.1,1.9-0.1,3.7-0.2,5.6
			C9.9,18.6,12.2,18.6,12.2,17.2L12.2,17.2z"/>
	</g>
</g>
<g>
	<line class="st0" x1="11.1" y1="17.2" x2="5.6" y2="17.2"/>
	<g>
		<path class="st0" d="M11.1,16.1c-1.8,0-3.7,0-5.5,0c-1.4,0-1.5,2.2,0,2.2c1.8,0,3.7,0,5.5,0C12.5,18.3,12.5,16.1,11.1,16.1
			L11.1,16.1z"/>
	</g>
</g>
<g>
	<line class="st0" x1="4.7" y1="17.2" x2="1.2" y2="14.1"/>
	<g>
		<path class="st0" d="M5.5,16.4c-1.2-1-2.4-2-3.5-3c-1.1-0.9-2.7,0.6-1.6,1.6c1.2,1,2.4,2,3.5,3C5,18.9,6.6,17.3,5.5,16.4L5.5,16.4
			z"/>
	</g>
</g>
<path class="st1" d="M2.6,7.5c-0.9-0.7-1.4-1.8-1.4-3c0-2.2,1.7-3.9,3.9-3.9S9,2.3,9,4.4c0,0.9-0.3,1.7-0.8,2.4"/>
</svg>
