<svg xmlns="http://www.w3.org/2000/svg" viewBox="0 0 226.12 138.77"><defs><style>.cls-1{fill:#190438;}.cls-2{opacity:0.13;}.cls-3,.cls-4{fill:#fff;}.cls-4{font-size:21px;font-family:HelveticaNeue, Helvetica Neue;}.cls-4,.cls-6{letter-spacing:0.02em;}.cls-5{letter-spacing:-0.09em;}</style></defs><title>Asset 9color</title><g id="Layer_2" data-name="Layer 2"><g id="Layer_1-2" data-name="Layer 1"><rect class="cls-1" y="33.41" width="219" height="83" rx="12"/><g class="cls-2"><path class="cls-3" d="M46.12,41a.11.11,0,0,0-.1-.11l-.81-.06-.33-.7c0-.05-.05-.05-.11-.05a.17.17,0,0,0-.1.05l-.38.7-.76.11a.13.13,0,0,0-.11.11.18.18,0,0,0,.06.16l.48.49-.16.76s0,.1.05.1.11.06.17,0l.7-.37.7.37h.11c0-.05,0-.05,0-.1l-.1-.76.59-.54A.22.22,0,0,0,46.12,41Z"/><path class="cls-3" d="M19.9,46.55l-.65-.38-.11-.75a.11.11,0,0,0-.1-.11.23.23,0,0,0-.17,0l-.54.6-.75-.11c-.06,0-.11,0-.11,0s-.06.11,0,.16l.32.6-.38.7v.16c0,.06.11.06.11.06l.76-.16.54.54a.18.18,0,0,0,.11,0H19a.11.11,0,0,0,.11-.11l.11-.75.7-.38c.06,0,.06-.06.06-.11A.21.21,0,0,0,19.9,46.55Z"/><path class="cls-3" d="M51.42,69.85l-.65-.43-.05-.81a.22.22,0,0,0,0-.11H50.5l-.59.49-.76-.22a.18.18,0,0,0-.16.06A.1.1,0,0,0,49,69l.27.7-.43.65c-.06.06-.06.11,0,.16s.05.06.11.06l.81-.06.48.6c0,.05.06.05.11.05h.06a.11.11,0,0,0,.1-.11l.22-.75.76-.27a.13.13,0,0,0,.11-.11C51.48,69.91,51.48,69.85,51.42,69.85Z"/><path class="cls-3" d="M18.87,64c0-.06,0-.11-.05-.11l-.65-.44-.05-.81s-.06-.1-.06-.1H17.9l-.59.48-.76-.16a.2.2,0,0,0-.16,0,.1.1,0,0,0,0,.17l.27.7-.43.65a.09.09,0,0,0,0,.16s.05,0,.1,0l.81,0,.49.59c0,.06.05.06.11.06h.05a.12.12,0,0,0,.11-.11l.22-.76.75-.27Z"/><path class="cls-3" d="M22.93,75.26c-.11,0-.11-.05-.16-.05L22,75.05l-.33-.71s-.05,0-.11,0a.17.17,0,0,0-.1,0l-.38.71-.76.1a.13.13,0,0,0-.11.11.17.17,0,0,0,.06.16l.54.54-.17.76c0,.06,0,.11.06.11a.1.1,0,0,0,.16,0l.7-.38.71.38h.1c.06,0,.06,0,.06-.11L22.28,76l.6-.54A.19.19,0,0,0,22.93,75.26Z"/><path class="cls-3" d="M33.74,40.12a.51.51,0,0,0-.54.54V55.85a.54.54,0,0,0,.54.54.5.5,0,0,0,.54-.54V40.66A.5.5,0,0,0,33.74,40.12Z"/><path class="cls-3" d="M33.74,64a.51.51,0,0,0-.54.54V76.72a.51.51,0,0,0,.54.54.5.5,0,0,0,.54-.54V64.56A.5.5,0,0,0,33.74,64Z"/><path class="cls-3" d="M32.45,53.85l-2.28-6.33a.55.55,0,0,0-.7-.32.53.53,0,0,0-.27.7l2.27,6.33a.52.52,0,0,0,.49.38.18.18,0,0,0,.16-.06A.57.57,0,0,0,32.45,53.85Z"/><path class="cls-3" d="M29.42,45.69l-.81-1.95a.57.57,0,0,0-.71-.32.55.55,0,0,0-.32.7l.81,2a.53.53,0,0,0,.49.32.41.41,0,0,0,.21,0A.56.56,0,0,0,29.42,45.69Z"/><path class="cls-3" d="M38.23,70.4l-2.92-8.28a.56.56,0,0,0-.7-.32.57.57,0,0,0-.33.7l3,8.27a.51.51,0,0,0,.48.38.23.23,0,0,0,.17-.05A.56.56,0,0,0,38.23,70.4Z"/><path class="cls-3" d="M33,57.47,23.25,45.63a.54.54,0,0,0-.81.7l9.74,11.79a.64.64,0,0,0,.43.22.82.82,0,0,0,.32-.11A.53.53,0,0,0,33,57.47Z"/><path class="cls-3" d="M45,72.67l-7.57-9.3a.52.52,0,0,0-.75-.06.53.53,0,0,0-.06.76l7.57,9.25a.7.7,0,0,0,.44.21.72.72,0,0,0,.32-.11A.51.51,0,0,0,45,72.67Z"/><path class="cls-3" d="M29,55.69,21.58,51.2a.59.59,0,0,0-.76.16.58.58,0,0,0,.16.81l7.46,4.49a.46.46,0,0,0,.27.06.65.65,0,0,0,.49-.27A.58.58,0,0,0,29,55.69Z"/><path class="cls-3" d="M47.1,66.72,34.93,59.47a.57.57,0,0,0-.75.17.56.56,0,0,0,.16.75l12.11,7.25a.52.52,0,0,0,.27,0,.66.66,0,0,0,.49-.27A.44.44,0,0,0,47.1,66.72Z"/><path class="cls-3" d="M28.88,57.69,16.82,55.31a.56.56,0,0,0-.65.43.52.52,0,0,0,.43.65l12.06,2.38h.11a.52.52,0,0,0,.54-.43A.55.55,0,0,0,28.88,57.69Z"/><path class="cls-3" d="M49.75,62,39.26,59.91a.51.51,0,0,0-.65.43A.56.56,0,0,0,39,61l10.49,2h.11a.52.52,0,0,0,.54-.43A.55.55,0,0,0,49.75,62Z"/><path class="cls-3" d="M44.34,57.09,37,58.18a.54.54,0,0,0-.44.59.59.59,0,0,0,.55.49h0l7.35-1.08a.71.71,0,0,0,.44-.65A.55.55,0,0,0,44.34,57.09Z"/><path class="cls-3" d="M31.58,59.53A.52.52,0,0,0,31,59.1l-8.66,1.24a.53.53,0,0,0-.43.59.58.58,0,0,0,.54.49h.06l8.65-1.3A.53.53,0,0,0,31.58,59.53Z"/><path class="cls-3" d="M47.64,57.15a.54.54,0,0,0-.6-.43l-.64.1a.55.55,0,0,0-.44.6.58.58,0,0,0,.54.49c0-.06,0-.06.06-.06l.65-.11A.53.53,0,0,0,47.64,57.15Z"/><path class="cls-3" d="M21.09,61.1a.54.54,0,0,0-.59-.44l-.65.06a.52.52,0,0,0-.43.59.57.57,0,0,0,.54.49H20l.65-.11A.52.52,0,0,0,21.09,61.1Z"/><path class="cls-3" d="M49.37,50.77a.55.55,0,0,0-.76-.22L38.5,56a.54.54,0,0,0-.21.76.56.56,0,0,0,.48.27A.52.52,0,0,0,39,57l10.11-5.46A.56.56,0,0,0,49.37,50.77Z"/><path class="cls-3" d="M29.74,61.47a.54.54,0,0,0-.75-.21L18.87,66.72a.55.55,0,0,0-.21.76.57.57,0,0,0,.48.27.43.43,0,0,0,.27-.06l10.12-5.46A.55.55,0,0,0,29.74,61.47Z"/><path class="cls-3" d="M44.07,47.74a.53.53,0,0,0-.76,0L34.5,57.58a.53.53,0,0,0,0,.76.85.85,0,0,0,.38.11.5.5,0,0,0,.38-.17l8.81-9.78A.52.52,0,0,0,44.07,47.74Z"/><path class="cls-3" d="M33.31,59.69a.53.53,0,0,0-.76.05l-8.86,9.74a.51.51,0,0,0,0,.75.51.51,0,0,0,.76,0l8.81-9.78A.52.52,0,0,0,33.31,59.69Z"/><path class="cls-3" d="M23.36,70.83a.47.47,0,0,0-.75,0l-1,1.08a.53.53,0,0,0,.06.76.49.49,0,0,0,.37.16.51.51,0,0,0,.38-.16l1-1.09A.52.52,0,0,0,23.36,70.83Z"/><path class="cls-3" d="M46.5,45a.52.52,0,0,0-.75.05l-1,1a.53.53,0,0,0,.06.76.51.51,0,0,0,.38.16.49.49,0,0,0,.37-.16l1-1.09A.52.52,0,0,0,46.5,45Z"/><path class="cls-3" d="M40.5,42.82a.53.53,0,0,0-.7.27L36.18,52a.48.48,0,0,0,.27.7.29.29,0,0,0,.21.06.47.47,0,0,0,.49-.33l3.62-8.87A.53.53,0,0,0,40.5,42.82Z"/><path class="cls-3" d="M32.77,62.34a.53.53,0,0,0-.7.27L27.63,73.32a.54.54,0,0,0,.27.7.37.37,0,0,0,.22,0,.48.48,0,0,0,.49-.32L33,63C33.2,62.77,33,62.5,32.77,62.34Z"/></g><text class="cls-4" transform="translate(34.75 69.98)">Closed for New <tspan class="cls-5"><tspan x="26.78" y="20">Y</tspan><tspan class="cls-6" x="38.44" y="20">ears Day</tspan></tspan></text><g class="cls-2"><path class="cls-3" d="M126,11.91a.16.16,0,0,0-.15-.15l-1.11-.08-.44-1c0-.07-.08-.07-.15-.07a.29.29,0,0,0-.15.07l-.51,1-1,.15a.17.17,0,0,0-.15.15.26.26,0,0,0,.08.22l.66.67-.22,1c0,.08,0,.15.07.15s.15.07.23,0l1-.52,1,.52h.14c.08-.07.08-.07.08-.15l-.15-1,.81-.74A.26.26,0,0,0,126,11.91Z"/><path class="cls-3" d="M90.15,19.44l-.89-.51-.15-1a.16.16,0,0,0-.15-.15.26.26,0,0,0-.22.08l-.74.81-1-.15c-.08,0-.15,0-.15.08a.14.14,0,0,0,0,.22l.44.81-.51,1v.22c0,.08.14.08.14.08l1-.22.74.74a.25.25,0,0,0,.15.07h.07a.16.16,0,0,0,.15-.15l.14-1,1-.52c.07,0,.07-.07.07-.15A.29.29,0,0,0,90.15,19.44Z"/><path class="cls-3" d="M133.23,51.3l-.89-.6-.07-1.1a.25.25,0,0,0-.07-.15H132l-.81.66-1-.29a.3.3,0,0,0-.23.07.14.14,0,0,0,0,.22l.37,1-.59.89a.14.14,0,0,0,0,.22c0,.08.08.08.15.08l1.11-.08.66.82c0,.07.08.07.15.07h.08a.15.15,0,0,0,.14-.15l.3-1,1-.37a.16.16,0,0,0,.15-.15C133.3,51.37,133.3,51.3,133.23,51.3Z"/><path class="cls-3" d="M88.74,43.31c0-.07,0-.14-.07-.14l-.89-.59-.07-1.11a.24.24,0,0,0-.08-.15h-.22L86.6,42l-1-.22a.26.26,0,0,0-.22.08.14.14,0,0,0,0,.22l.37,1-.59.89a.14.14,0,0,0,0,.22c0,.07.07.07.15.07l1.11-.07.66.81c0,.07.08.07.15.07h.07a.15.15,0,0,0,.15-.14l.3-1,1-.37Z"/><path class="cls-3" d="M94.28,58.69c-.14,0-.14-.08-.22-.08L93,58.39l-.44-1c0-.07-.07-.07-.15-.07a.29.29,0,0,0-.15.07l-.51,1-1,.15a.15.15,0,0,0-.14.15.29.29,0,0,0,.07.22l.74.74-.22,1c0,.07,0,.15.07.15a.14.14,0,0,0,.22,0l1-.52,1,.52h.15c.07-.08.07-.08.07-.15l-.14-1,.81-.74A.29.29,0,0,0,94.28,58.69Z"/><path class="cls-3" d="M109.06,10.65a.7.7,0,0,0-.73.74V32.16a.73.73,0,0,0,.73.73.69.69,0,0,0,.74-.73V11.39A.7.7,0,0,0,109.06,10.65Z"/><path class="cls-3" d="M109.06,43.31a.7.7,0,0,0-.73.74V60.68a.74.74,0,1,0,1.47,0V44.05A.7.7,0,0,0,109.06,43.31Z"/><path class="cls-3" d="M107.29,29.42l-3.1-8.65a.76.76,0,0,0-1-.44.73.73,0,0,0-.37,1l3.1,8.65a.72.72,0,0,0,.67.52.26.26,0,0,0,.22-.08A.76.76,0,0,0,107.29,29.42Z"/><path class="cls-3" d="M103.15,18.26,102,15.6a.75.75,0,1,0-1.4.52l1.11,2.73a.71.71,0,0,0,.66.45.53.53,0,0,0,.3-.08A.76.76,0,0,0,103.15,18.26Z"/><path class="cls-3" d="M115.2,52l-4-11.3a.75.75,0,0,0-1.41.51l4.07,11.31a.7.7,0,0,0,.66.52.27.27,0,0,0,.22-.07A.78.78,0,0,0,115.2,52Z"/><path class="cls-3" d="M108,34.37,94.73,18.19a.73.73,0,1,0-1.11,1l13.3,16.11a.9.9,0,0,0,.59.29,1.12,1.12,0,0,0,.45-.14A.73.73,0,0,0,108,34.37Z"/><path class="cls-3" d="M124.51,55.14,114.16,42.43a.71.71,0,0,0-1-.08.73.73,0,0,0-.08,1L123.4,56a1,1,0,0,0,.59.29,1,1,0,0,0,.45-.15A.71.71,0,0,0,124.51,55.14Z"/><path class="cls-3" d="M102.63,31.93,92.44,25.8a.81.81,0,0,0-1,.22.8.8,0,0,0,.22,1.11l10.2,6.13a.62.62,0,0,0,.37.08.9.9,0,0,0,.67-.37A.8.8,0,0,0,102.63,31.93Z"/><path class="cls-3" d="M127.32,47l-16.63-9.9a.74.74,0,0,0-.81,1.25l16.55,9.91a.7.7,0,0,0,.37.07.9.9,0,0,0,.67-.37A.6.6,0,0,0,127.32,47Z"/><path class="cls-3" d="M102.41,34.67,85.93,31.42a.73.73,0,0,0-.88.59.7.7,0,0,0,.59.88l16.48,3.26h.15a.72.72,0,0,0,.73-.6A.73.73,0,0,0,102.41,34.67Z"/><path class="cls-3" d="M130.94,40.51,116.6,37.7a.71.71,0,0,0-.88.59.74.74,0,0,0,.59.89L130.64,42h.15a.72.72,0,0,0,.74-.59A.74.74,0,0,0,130.94,40.51Z"/><path class="cls-3" d="M123.55,33.85l-10,1.48a.74.74,0,0,0-.59.82.78.78,0,0,0,.74.66h.07l10-1.48a1,1,0,0,0,.59-.88A.74.74,0,0,0,123.55,33.85Z"/><path class="cls-3" d="M106.11,37.18a.74.74,0,0,0-.81-.59l-11.83,1.7a.73.73,0,0,0-.59.81.79.79,0,0,0,.74.67h.07L105.52,38A.73.73,0,0,0,106.11,37.18Z"/><path class="cls-3" d="M128.06,33.93a.74.74,0,0,0-.82-.59l-.88.15a.72.72,0,0,0-.59.81.78.78,0,0,0,.74.66c0-.07,0-.07.07-.07l.89-.15A.73.73,0,0,0,128.06,33.93Z"/><path class="cls-3" d="M91.77,39.32a.73.73,0,0,0-.81-.59l-.89.08a.73.73,0,0,0-.59.81.78.78,0,0,0,.74.66h.07l.89-.14A.74.74,0,0,0,91.77,39.32Z"/><path class="cls-3" d="M130.42,25.21a.74.74,0,0,0-1-.3l-13.82,7.47a.74.74,0,0,0-.3,1,.79.79,0,0,0,.67.37.72.72,0,0,0,.37-.07l13.82-7.47A.74.74,0,0,0,130.42,25.21Z"/><path class="cls-3" d="M103.6,39.84a.75.75,0,0,0-1-.29L88.74,47a.73.73,0,0,0-.29,1,.75.75,0,0,0,.66.37.7.7,0,0,0,.37-.07l13.82-7.46A.76.76,0,0,0,103.6,39.84Z"/><path class="cls-3" d="M123.18,21.07a.73.73,0,0,0-1,.07l-12,13.38a.71.71,0,0,0,.07,1,1,1,0,0,0,.52.15.67.67,0,0,0,.52-.22l12-13.38A.71.71,0,0,0,123.18,21.07Z"/><path class="cls-3" d="M108.47,37.4a.71.71,0,0,0-1,.08L95.32,50.78a.71.71,0,0,0,.07,1,.72.72,0,0,0,1,0l12-13.37A.71.71,0,0,0,108.47,37.4Z"/><path class="cls-3" d="M94.88,52.63a.66.66,0,0,0-1,0L92.51,54.1a.73.73,0,0,0,.07,1,.72.72,0,0,0,1,0L95,53.66A.72.72,0,0,0,94.88,52.63Z"/><path class="cls-3" d="M126.51,17.37a.73.73,0,0,0-1,.08l-1.33,1.4a.73.73,0,0,0,.07,1,.72.72,0,0,0,1,0l1.33-1.48A.73.73,0,0,0,126.51,17.37Z"/><path class="cls-3" d="M118.3,14.34a.74.74,0,0,0-1,.37l-5,12.12a.66.66,0,0,0,.37,1,.4.4,0,0,0,.29.08.65.65,0,0,0,.67-.44l5-12.12A.74.74,0,0,0,118.3,14.34Z"/><path class="cls-3" d="M107.73,41a.74.74,0,0,0-1,.37L100.71,56a.74.74,0,0,0,.37,1,.48.48,0,0,0,.3.07.65.65,0,0,0,.66-.44L108.1,42C108.33,41.61,108.1,41.24,107.73,41Z"/></g><g class="cls-2"><path class="cls-3" d="M90.62,77.17a.18.18,0,0,0-.17-.17l-1.29-.09-.51-1.12c0-.08-.09-.08-.17-.08a.33.33,0,0,0-.18.08l-.6,1.12-1.2.17a.18.18,0,0,0-.17.17.33.33,0,0,0,.08.26l.78.77-.26,1.21c0,.08,0,.17.09.17s.17.09.25,0l1.12-.6,1.12.6h.17c.09-.09.09-.09.09-.17l-.18-1.21,1-.85A.35.35,0,0,0,90.62,77.17Z"/><path class="cls-3" d="M49,85.93l-1-.6-.17-1.2a.18.18,0,0,0-.17-.17.33.33,0,0,0-.26.08l-.86.95-1.2-.18c-.09,0-.18,0-.18.09a.17.17,0,0,0,0,.26l.52.94L45,87.22v.26c0,.08.17.08.17.08l1.2-.25.86.86a.32.32,0,0,0,.17.08h.09a.18.18,0,0,0,.17-.17l.17-1.2,1.12-.6c.09,0,.09-.09.09-.18A.31.31,0,0,0,49,85.93Z"/><path class="cls-3" d="M99.05,123l-1-.69L97.93,121a.27.27,0,0,0-.09-.17h-.26l-.94.77-1.2-.34a.33.33,0,0,0-.26.08.16.16,0,0,0,0,.26l.43,1.12-.69,1a.16.16,0,0,0,0,.26c0,.08.09.08.17.08l1.29-.08.77.94c0,.09.09.09.18.09h.08a.18.18,0,0,0,.17-.17l.35-1.21,1.2-.43a.18.18,0,0,0,.17-.17C99.13,123.05,99.13,123,99.05,123Z"/><path class="cls-3" d="M47.32,113.69c0-.09,0-.18-.09-.18l-1-.68-.08-1.29a.27.27,0,0,0-.09-.17h-.26l-.94.77-1.21-.26a.29.29,0,0,0-.25.09.15.15,0,0,0,0,.25l.43,1.12-.69,1a.16.16,0,0,0,0,.26c0,.09.08.09.17.09l1.29-.09.77,1c0,.08.09.08.17.08h.09a.18.18,0,0,0,.17-.17l.35-1.2,1.2-.43Z"/><path class="cls-3" d="M53.76,131.56c-.17,0-.17-.09-.25-.09l-1.29-.26-.52-1.11c0-.09-.09-.09-.17-.09a.27.27,0,0,0-.17.09l-.6,1.11-1.21.18a.18.18,0,0,0-.17.17.32.32,0,0,0,.09.26l.86.85-.26,1.21c0,.08,0,.17.08.17a.16.16,0,0,0,.26,0l1.12-.6,1.12.6h.17c.08-.09.08-.09.08-.17l-.17-1.21,1-.85A.35.35,0,0,0,53.76,131.56Z"/><path class="cls-3" d="M71,75.71a.81.81,0,0,0-.86.86v24.14a.86.86,0,0,0,.86.86.81.81,0,0,0,.86-.86V76.57A.81.81,0,0,0,71,75.71Z"/><path class="cls-3" d="M71,113.69a.81.81,0,0,0-.86.85v19.34a.86.86,0,1,0,1.72,0V114.54A.81.81,0,0,0,71,113.69Z"/><path class="cls-3" d="M68.89,97.53l-3.61-10A.9.9,0,0,0,64.16,87a.86.86,0,0,0-.43,1.12l3.61,10a.82.82,0,0,0,.77.6.34.34,0,0,0,.26-.08A.9.9,0,0,0,68.89,97.53Z"/><path class="cls-3" d="M64.07,84.56l-1.28-3.1a.87.87,0,0,0-1.64.61l1.29,3.17a.82.82,0,0,0,.77.52.63.63,0,0,0,.35-.09A.87.87,0,0,0,64.07,84.56Z"/><path class="cls-3" d="M78.08,123.82l-4.64-13.14a.87.87,0,1,0-1.63.6l4.72,13.15a.83.83,0,0,0,.78.6.29.29,0,0,0,.25-.09A.9.9,0,0,0,78.08,123.82Z"/><path class="cls-3" d="M69.75,103.29,54.28,84.47A.85.85,0,1,0,53,85.59l15.47,18.73a1.06,1.06,0,0,0,.68.34,1.14,1.14,0,0,0,.52-.17A.84.84,0,0,0,69.75,103.29Z"/><path class="cls-3" d="M88.91,127.43l-12-14.78a.84.84,0,0,0-1.21-.08.83.83,0,0,0-.08,1.2l12,14.69a1,1,0,0,0,.68.35,1.27,1.27,0,0,0,.52-.17A.85.85,0,0,0,88.91,127.43Z"/><path class="cls-3" d="M63.47,100.45,51.61,93.32a.91.91,0,0,0-.94,1.55L62.53,102a.75.75,0,0,0,.43.09,1.05,1.05,0,0,0,.77-.43A.93.93,0,0,0,63.47,100.45Z"/><path class="cls-3" d="M92.17,118,72.84,106.47a.91.91,0,0,0-1.2.26.92.92,0,0,0,.25,1.2l19.25,11.51a.75.75,0,0,0,.43.09,1,1,0,0,0,.77-.43A.69.69,0,0,0,92.17,118Z"/><path class="cls-3" d="M63.21,103.63,44.05,99.85a.87.87,0,0,0-1,.69.84.84,0,0,0,.69,1l19.16,3.78H63a.83.83,0,0,0,.86-.69A.87.87,0,0,0,63.21,103.63Z"/><path class="cls-3" d="M96.38,110.42l-16.67-3.27a.84.84,0,0,0-1,.69.87.87,0,0,0,.69,1L96,112.14h.17a.84.84,0,0,0,.86-.69A.87.87,0,0,0,96.38,110.42Z"/><path class="cls-3" d="M87.79,102.69,76.1,104.41a.83.83,0,0,0-.68.94.91.91,0,0,0,.86.77h.08l11.69-1.71a1.13,1.13,0,0,0,.68-1A.83.83,0,0,0,87.79,102.69Z"/><path class="cls-3" d="M67.51,106.55a.83.83,0,0,0-.94-.68l-13.75,2a.86.86,0,0,0-.69,1,.91.91,0,0,0,.86.77h.09l13.74-2.06A.86.86,0,0,0,67.51,106.55Z"/><path class="cls-3" d="M93,102.77a.84.84,0,0,0-.94-.68l-1,.17a.83.83,0,0,0-.68.94.92.92,0,0,0,.86.78c0-.09,0-.09.08-.09l1-.17A.86.86,0,0,0,93,102.77Z"/><path class="cls-3" d="M50.84,109.05a.84.84,0,0,0-.94-.69l-1,.08a.86.86,0,0,0-.69,1,.91.91,0,0,0,.86.77h.08l1-.17A.85.85,0,0,0,50.84,109.05Z"/><path class="cls-3" d="M95.78,92.63a.86.86,0,0,0-1.2-.34L78.51,101a.86.86,0,0,0-.34,1.2.89.89,0,0,0,.77.43.83.83,0,0,0,.43-.08l16.07-8.68A.87.87,0,0,0,95.78,92.63Z"/><path class="cls-3" d="M64.59,109.65a.87.87,0,0,0-1.2-.35L47.32,118a.87.87,0,0,0-.35,1.2.91.91,0,0,0,.78.43.83.83,0,0,0,.43-.08l16.07-8.68A.86.86,0,0,0,64.59,109.65Z"/><path class="cls-3" d="M87.36,87.82a.83.83,0,0,0-1.2.09l-14,15.55a.83.83,0,0,0,.09,1.2,1.18,1.18,0,0,0,.6.18.78.78,0,0,0,.6-.26L87.45,89A.84.84,0,0,0,87.36,87.82Z"/><path class="cls-3" d="M70.26,106.81a.83.83,0,0,0-1.2.09L55,122.36a.84.84,0,0,0,.08,1.21.79.79,0,0,0,.6.25.77.77,0,0,0,.6-.25l14-15.56A.83.83,0,0,0,70.26,106.81Z"/><path class="cls-3" d="M54.45,124.51a.77.77,0,0,0-1.2,0l-1.55,1.72a.83.83,0,0,0,.09,1.2.82.82,0,0,0,1.2,0l1.55-1.72A.84.84,0,0,0,54.45,124.51Z"/><path class="cls-3" d="M91.23,83.53a.84.84,0,0,0-1.21.08l-1.54,1.63a.84.84,0,0,0,.08,1.21.79.79,0,0,0,.6.25.81.81,0,0,0,.61-.25l1.54-1.72A.83.83,0,0,0,91.23,83.53Z"/><path class="cls-3" d="M81.69,80a.86.86,0,0,0-1.12.43L74.81,94.52a.77.77,0,0,0,.43,1.12.51.51,0,0,0,.35.09.74.74,0,0,0,.77-.52l5.76-14.09A.86.86,0,0,0,81.69,80Z"/><path class="cls-3" d="M69.4,111a.86.86,0,0,0-1.12.43l-7,17a.86.86,0,0,0,.43,1.12.49.49,0,0,0,.34.09.75.75,0,0,0,.78-.52l7-17C70.09,111.71,69.83,111.28,69.4,111Z"/></g><g class="cls-2"><path class="cls-3" d="M175.27,81.2a.18.18,0,0,0-.18-.17l-1.28-.09-.52-1.12c0-.08-.09-.08-.17-.08a.28.28,0,0,0-.17.08l-.6,1.12-1.21.17a.19.19,0,0,0-.17.18.29.29,0,0,0,.09.25l.77.78-.26,1.2c0,.09,0,.17.09.17s.17.09.26,0l1.11-.6,1.12.6h.17c.09-.08.09-.08.09-.17l-.17-1.2.94-.86A.31.31,0,0,0,175.27,81.2Z"/><path class="cls-3" d="M133.59,90l-1-.6-.17-1.2a.18.18,0,0,0-.17-.17.34.34,0,0,0-.26.08l-.86,1-1.2-.17c-.09,0-.17,0-.17.08a.16.16,0,0,0,0,.26l.51,1-.6,1.11v.26c0,.09.17.09.17.09l1.21-.26.85.86a.33.33,0,0,0,.18.08h.08a.18.18,0,0,0,.17-.17l.18-1.2,1.11-.6c.09,0,.09-.09.09-.17A.31.31,0,0,0,133.59,90Z"/><path class="cls-3" d="M183.69,127l-1-.69-.09-1.29a.27.27,0,0,0-.09-.17h-.25l-.95.77-1.2-.34a.34.34,0,0,0-.26.08.16.16,0,0,0,0,.26l.43,1.12-.69,1a.17.17,0,0,0,0,.26c0,.08.09.08.17.08L181,128l.78.94c0,.09.08.09.17.09h.08a.19.19,0,0,0,.18-.17l.34-1.21,1.2-.43a.18.18,0,0,0,.17-.17C183.77,127.08,183.77,127,183.69,127Z"/><path class="cls-3" d="M132,117.72c0-.09,0-.17-.09-.17l-1-.69-.08-1.29a.27.27,0,0,0-.09-.17h-.26l-.94.77-1.2-.26a.3.3,0,0,0-.26.09.16.16,0,0,0,0,.26l.43,1.11-.69,1a.16.16,0,0,0,0,.26c0,.09.09.09.17.09l1.29-.09.77,1c0,.08.09.08.18.08h.08a.18.18,0,0,0,.17-.17l.35-1.2,1.2-.43Z"/><path class="cls-3" d="M138.4,135.59c-.17,0-.17-.09-.25-.09l-1.29-.25-.52-1.12c0-.09-.08-.09-.17-.09a.31.31,0,0,0-.17.09l-.6,1.12-1.21.17a.18.18,0,0,0-.17.17.31.31,0,0,0,.09.26l.86.86-.26,1.2c0,.09,0,.17.09.17a.15.15,0,0,0,.25,0l1.12-.6,1.12.6h.17c.09-.08.09-.08.09-.17l-.18-1.2.95-.86A.34.34,0,0,0,138.4,135.59Z"/><path class="cls-3" d="M155.59,79.74a.81.81,0,0,0-.86.86v24.14a.86.86,0,0,0,.86.86.81.81,0,0,0,.86-.86V80.6A.81.81,0,0,0,155.59,79.74Z"/><path class="cls-3" d="M155.59,117.72a.81.81,0,0,0-.86.86v19.33a.86.86,0,1,0,1.72,0V118.58A.81.81,0,0,0,155.59,117.72Z"/><path class="cls-3" d="M153.53,101.56l-3.61-10A.9.9,0,0,0,148.8,91a.86.86,0,0,0-.43,1.12l3.61,10a.83.83,0,0,0,.77.61.3.3,0,0,0,.26-.09A.9.9,0,0,0,153.53,101.56Z"/><path class="cls-3" d="M148.72,88.59l-1.29-3.09a.87.87,0,1,0-1.64.6l1.29,3.18a.84.84,0,0,0,.78.51.69.69,0,0,0,.34-.08A.9.9,0,0,0,148.72,88.59Z"/><path class="cls-3" d="M162.72,127.86l-4.64-13.15a.87.87,0,1,0-1.63.6l4.73,13.15a.81.81,0,0,0,.77.6.32.32,0,0,0,.26-.09A.88.88,0,0,0,162.72,127.86Z"/><path class="cls-3" d="M154.39,107.32,138.92,88.5a.85.85,0,0,0-1.29,1.12l15.47,18.73a1.07,1.07,0,0,0,.69.35,1.16,1.16,0,0,0,.51-.18A.84.84,0,0,0,154.39,107.32Z"/><path class="cls-3" d="M173.55,131.47l-12-14.78a.85.85,0,1,0-1.29,1.11l12,14.7a1.06,1.06,0,0,0,.69.34,1.28,1.28,0,0,0,.51-.17A.83.83,0,0,0,173.55,131.47Z"/><path class="cls-3" d="M148.11,104.48l-11.85-7.13a1,1,0,0,0-1.21.26.94.94,0,0,0,.26,1.29L147.17,106a.75.75,0,0,0,.43.09,1,1,0,0,0,.77-.43A.93.93,0,0,0,148.11,104.48Z"/><path class="cls-3" d="M176.81,122,157.48,110.5a.87.87,0,1,0-.94,1.46l19.24,11.51a.75.75,0,0,0,.43.09,1,1,0,0,0,.78-.43A.7.7,0,0,0,176.81,122Z"/><path class="cls-3" d="M147.86,107.66l-19.16-3.78a.89.89,0,0,0-1,.69.83.83,0,0,0,.69,1l19.16,3.78h.17a.84.84,0,0,0,.86-.68A.88.88,0,0,0,147.86,107.66Z"/><path class="cls-3" d="M181,114.45l-16.67-3.26a.83.83,0,0,0-1,.68.88.88,0,0,0,.69,1l16.67,3.26h.17a.84.84,0,0,0,.86-.69A.87.87,0,0,0,181,114.45Z"/><path class="cls-3" d="M172.43,106.72l-11.68,1.72a.84.84,0,0,0-.69.94.92.92,0,0,0,.86.78H161l11.69-1.72a1.11,1.11,0,0,0,.69-1A.86.86,0,0,0,172.43,106.72Z"/><path class="cls-3" d="M152.15,110.59a.84.84,0,0,0-.94-.69l-13.75,2a.87.87,0,0,0-.69.95.91.91,0,0,0,.86.77h.09l13.75-2.06A.84.84,0,0,0,152.15,110.59Z"/><path class="cls-3" d="M177.67,106.8a.84.84,0,0,0-.94-.68l-1,.17a.85.85,0,0,0-.69.94.92.92,0,0,0,.86.78c0-.09,0-.09.08-.09l1-.17A.86.86,0,0,0,177.67,106.8Z"/><path class="cls-3" d="M135.48,113.08a.84.84,0,0,0-.94-.69l-1,.09a.84.84,0,0,0-.69.94.91.91,0,0,0,.86.77h.09l1-.17A.83.83,0,0,0,135.48,113.08Z"/><path class="cls-3" d="M180.42,96.67a.87.87,0,0,0-1.2-.35L163.15,105a.86.86,0,0,0-.34,1.2.89.89,0,0,0,.77.43.83.83,0,0,0,.43-.08l16.07-8.68A.86.86,0,0,0,180.42,96.67Z"/><path class="cls-3" d="M149.23,113.68a.87.87,0,0,0-1.2-.35L132,122a.87.87,0,0,0-.34,1.21.92.92,0,0,0,.77.43.75.75,0,0,0,.43-.09l16.07-8.68A.86.86,0,0,0,149.23,113.68Z"/><path class="cls-3" d="M172,91.85a.84.84,0,0,0-1.2.09l-14,15.55a.85.85,0,0,0,.09,1.21,1.29,1.29,0,0,0,.6.17.78.78,0,0,0,.6-.26l14-15.55A.84.84,0,0,0,172,91.85Z"/><path class="cls-3" d="M154.9,110.84a.84.84,0,0,0-1.2.09L139.61,126.4a.83.83,0,0,0,.08,1.2.83.83,0,0,0,1.21,0l14-15.55A.83.83,0,0,0,154.9,110.84Z"/><path class="cls-3" d="M139.09,128.54a.77.77,0,0,0-1.2,0l-1.55,1.72a.85.85,0,0,0,.09,1.21.84.84,0,0,0,1.2,0l1.55-1.72A.84.84,0,0,0,139.09,128.54Z"/><path class="cls-3" d="M175.87,87.56a.83.83,0,0,0-1.2.08l-1.55,1.64a.83.83,0,0,0,.08,1.2.82.82,0,0,0,.61.26.79.79,0,0,0,.6-.26L176,88.76A.83.83,0,0,0,175.87,87.56Z"/><path class="cls-3" d="M166.33,84a.86.86,0,0,0-1.12.43l-5.75,14.1a.76.76,0,0,0,.43,1.11.48.48,0,0,0,.34.09.74.74,0,0,0,.77-.52l5.76-14.09A.86.86,0,0,0,166.33,84Z"/><path class="cls-3" d="M154,115.05a.85.85,0,0,0-1.11.43l-7.05,17a.85.85,0,0,0,.43,1.11.5.5,0,0,0,.34.09.75.75,0,0,0,.78-.52l7-17C154.73,115.74,154.47,115.31,154,115.05Z"/></g><g class="cls-2"><path class="cls-3" d="M215.62,1.77a.23.23,0,0,0-.21-.21l-1.56-.1L213.23.1c0-.1-.11-.1-.21-.1a.39.39,0,0,0-.21.1l-.73,1.36-1.45.2a.23.23,0,0,0-.21.21.38.38,0,0,0,.1.31l.94.94-.31,1.46c0,.1,0,.2.1.2s.21.11.31,0l1.36-.72,1.35.72h.21c.1-.1.1-.1.1-.2l-.21-1.46,1.14-1A.37.37,0,0,0,215.62,1.77Z"/><path class="cls-3" d="M165.18,12.38l-1.25-.73-.2-1.46a.23.23,0,0,0-.21-.21.36.36,0,0,0-.31.11l-1,1.14L160.71,11c-.1,0-.21,0-.21.11a.2.2,0,0,0,0,.31l.63,1.14-.73,1.35v.32c0,.1.21.1.21.1l1.45-.31,1,1a.39.39,0,0,0,.21.1h.1a.22.22,0,0,0,.21-.21l.21-1.45,1.35-.73c.11,0,.11-.1.11-.21A.34.34,0,0,0,165.18,12.38Z"/><path class="cls-3" d="M225.81,57.2l-1.25-.84-.1-1.56a.34.34,0,0,0-.11-.2H224l-1.14.93-1.46-.41a.39.39,0,0,0-.31.1.2.2,0,0,0,0,.31l.52,1.35-.83,1.25a.19.19,0,0,0,0,.31c0,.11.1.11.21.11l1.56-.11.93,1.15c0,.1.11.1.21.1h.1a.22.22,0,0,0,.21-.21l.42-1.45,1.45-.52a.23.23,0,0,0,.21-.21C225.91,57.3,225.91,57.2,225.81,57.2Z"/><path class="cls-3" d="M163.21,46c0-.1,0-.2-.11-.2l-1.25-.84-.1-1.56a.35.35,0,0,0-.1-.2h-.32l-1.14.93-1.45-.31a.41.41,0,0,0-.32.1.21.21,0,0,0,0,.32l.52,1.35-.83,1.25a.2.2,0,0,0,0,.31c0,.1.11.1.21.1l1.56-.1.94,1.14c0,.11.1.11.2.11h.11a.23.23,0,0,0,.21-.21l.41-1.46,1.46-.52Z"/><path class="cls-3" d="M171,67.59c-.21,0-.21-.1-.32-.1l-1.56-.31-.62-1.35c0-.11-.1-.11-.21-.11a.38.38,0,0,0-.21.11l-.72,1.35-1.46.21a.22.22,0,0,0-.21.2.38.38,0,0,0,.11.32l1,1-.32,1.45c0,.11,0,.21.11.21a.2.2,0,0,0,.31,0l1.35-.73,1.35.73h.21c.11-.1.11-.1.11-.21L169.76,69l1.14-1A.38.38,0,0,0,171,67.59Z"/><path class="cls-3" d="M191.8,0a1,1,0,0,0-1,1V30.26a1,1,0,0,0,1,1,1,1,0,0,0,1-1V1A1,1,0,0,0,191.8,0Z"/><path class="cls-3" d="M191.8,46a1,1,0,0,0-1,1V70.4a1,1,0,1,0,2.08,0V47A1,1,0,0,0,191.8,46Z"/><path class="cls-3" d="M189.31,26.41l-4.37-12.16a1.08,1.08,0,0,0-1.35-.63,1,1,0,0,0-.52,1.35l4.37,12.17a1,1,0,0,0,.93.73.41.41,0,0,0,.32-.1A1.1,1.1,0,0,0,189.31,26.41Z"/><path class="cls-3" d="M183.49,10.71,181.93,7a1.1,1.1,0,0,0-1.36-.63A1.09,1.09,0,0,0,180,7.7l1.56,3.84a1,1,0,0,0,.94.63.75.75,0,0,0,.41-.11A1.09,1.09,0,0,0,183.49,10.71Z"/><path class="cls-3" d="M200.44,58.24l-5.62-15.92a1.08,1.08,0,0,0-1.35-.62,1.09,1.09,0,0,0-.63,1.35L198.56,59a1,1,0,0,0,.94.73.39.39,0,0,0,.31-.1A1.09,1.09,0,0,0,200.44,58.24Z"/><path class="cls-3" d="M190.35,33.38,171.63,10.61A1,1,0,1,0,170.07,12l18.72,22.67a1.28,1.28,0,0,0,.83.42,1.48,1.48,0,0,0,.62-.21A1,1,0,0,0,190.35,33.38Z"/><path class="cls-3" d="M213.54,62.6,199,44.72a1,1,0,1,0-1.56,1.35L212,63.85a1.28,1.28,0,0,0,.83.42,1.48,1.48,0,0,0,.62-.21A1,1,0,0,0,213.54,62.6Z"/><path class="cls-3" d="M182.76,30l-14.35-8.63a1.1,1.1,0,0,0-1.15,1.87l14.35,8.63a.91.91,0,0,0,.52.11,1.24,1.24,0,0,0,.94-.52A1.13,1.13,0,0,0,182.76,30Z"/><path class="cls-3" d="M217.49,51.16l-23.4-13.93A1.05,1.05,0,0,0,193,39l23.29,13.93a.89.89,0,0,0,.52.11,1.26,1.26,0,0,0,.94-.52A.85.85,0,0,0,217.49,51.16Z"/><path class="cls-3" d="M182.45,33.8l-23.19-4.58a1.06,1.06,0,0,0-1.25.83,1,1,0,0,0,.83,1.25L182,35.88h.21a1,1,0,0,0,1-.83A1.06,1.06,0,0,0,182.45,33.8Z"/><path class="cls-3" d="M222.59,42l-20.18-3.95a1,1,0,0,0-1.25.83,1.06,1.06,0,0,0,.84,1.25l20.17,4h.21a1,1,0,0,0,1-.83A1.06,1.06,0,0,0,222.59,42Z"/><path class="cls-3" d="M212.19,32.65,198,34.73a1,1,0,0,0-.83,1.15,1.11,1.11,0,0,0,1,.93h.11l14.14-2.08a1.33,1.33,0,0,0,.83-1.24A1,1,0,0,0,212.19,32.65Z"/><path class="cls-3" d="M187.65,37.33a1,1,0,0,0-1.15-.83l-16.64,2.39A1,1,0,0,0,169,40a1.1,1.1,0,0,0,1,.93h.1l16.64-2.49A1,1,0,0,0,187.65,37.33Z"/><path class="cls-3" d="M218.53,32.76a1,1,0,0,0-1.14-.83l-1.25.2a1,1,0,0,0-.83,1.15,1.1,1.1,0,0,0,1,.93c0-.1,0-.1.1-.1l1.25-.21A1,1,0,0,0,218.53,32.76Z"/><path class="cls-3" d="M167.47,40.35a1,1,0,0,0-1.14-.83l-1.25.1a1,1,0,0,0-.83,1.14,1.11,1.11,0,0,0,1,.94h.1l1.25-.21A1,1,0,0,0,167.47,40.35Z"/><path class="cls-3" d="M221.86,20.49a1.06,1.06,0,0,0-1.46-.42L201,30.57a1.06,1.06,0,0,0-.42,1.46,1.1,1.1,0,0,0,.94.52,1,1,0,0,0,.52-.1l19.44-10.51A1,1,0,0,0,221.86,20.49Z"/><path class="cls-3" d="M184.11,41.08a1.06,1.06,0,0,0-1.46-.42l-19.44,10.5a1.06,1.06,0,0,0-.42,1.46,1.1,1.1,0,0,0,.94.52,1,1,0,0,0,.52-.1l19.44-10.51A1,1,0,0,0,184.11,41.08Z"/><path class="cls-3" d="M211.67,14.66a1,1,0,0,0-1.46.11l-17,18.82a1,1,0,0,0,.1,1.46,1.57,1.57,0,0,0,.73.2,1,1,0,0,0,.73-.31l17-18.82A1,1,0,0,0,211.67,14.66Z"/><path class="cls-3" d="M191,37.65a1,1,0,0,0-1.45.1L172.46,56.47a1,1,0,0,0,.11,1.45.92.92,0,0,0,.72.32.94.94,0,0,0,.73-.32L191,39.1A1,1,0,0,0,191,37.65Z"/><path class="cls-3" d="M171.84,59.07a.93.93,0,0,0-1.46,0l-1.87,2.08a1,1,0,0,0,.1,1.45,1,1,0,0,0,1.46,0l1.87-2.08A1,1,0,0,0,171.84,59.07Z"/><path class="cls-3" d="M216.35,9.46a1,1,0,0,0-1.46.11l-1.87,2a1,1,0,0,0,.1,1.46,1,1,0,0,0,1.46,0l1.87-2.08A1,1,0,0,0,216.35,9.46Z"/><path class="cls-3" d="M204.8,5.2a1,1,0,0,0-1.35.52l-7,17.05a.94.94,0,0,0,.52,1.36.67.67,0,0,0,.42.1.92.92,0,0,0,.94-.62l7-17.06A1,1,0,0,0,204.8,5.2Z"/><path class="cls-3" d="M189.93,42.74a1,1,0,0,0-1.35.52l-8.53,20.59a1,1,0,0,0,.52,1.35.62.62,0,0,0,.42.11.92.92,0,0,0,.94-.63l8.52-20.59C190.76,43.57,190.45,43.05,189.93,42.74Z"/></g></g></g></svg>