<?xml version="1.0" encoding="utf-8"?>
<!-- Generator: Adobe Illustrator 21.0.2, SVG Export Plug-In . SVG Version: 6.00 Build 0)  -->
<svg version="1.1" id="Layer_1" xmlns:sketch="http://www.bohemiancoding.com/sketch/ns"
	 xmlns="http://www.w3.org/2000/svg" xmlns:xlink="http://www.w3.org/1999/xlink" x="0px" y="0px" viewBox="0 0 25 27"
	 style="enable-background:new 0 0 25 27;" xml:space="preserve">
<style type="text/css">
	.st0{fill:#222222;}
	.st1{fill:#FFFFFF;}
</style>
<title></title>
<desc></desc>
<g id="Icons-for-Export">
	<g id="Libations-Drinks-Inactive" transform="translate(-3.000000, -5.000000)">
		<g id="Rectangle-19" transform="translate(3.000000, 5.000000)">
			<path class="st0" d="M1,0h1h21h2L14,13v12l5,2H6l5-2V13L0,0H1z M13.9,3H4.5L2.8,1h19.3l-1.7,2h-3.1c-0.2-0.3-0.5-0.6-0.9-0.8
				c-0.8-0.4-1.7-0.1-2.3,0.5L13.9,3z M16.4,4.9c0.6,0,1-0.4,1-1s-0.4-1-1-1c-0.6,0-1,0.4-1,1S15.8,4.9,16.4,4.9z"/>
		</g>
	</g>
</g>
<path class="st1" d="M12,11.8l-6.7-8h7.8c-0.3,0.7-0.1,1.5,0.5,2.1c0.8,0.8,2,0.8,2.8,0l0.7-0.7c0.4-0.4,0.6-0.9,0.6-1.4h2l-6.7,8
	H12"/>
<polyline class="st1" points="12,13.8 13,13.8 13,24.8 12,24.8 "/>
<path class="st1" d="M13.9,3H4.5L2.8,1h19.3l-1.7,2h-3.1c-0.2-0.3-0.5-0.6-0.9-0.8c-0.8-0.4-1.7-0.1-2.3,0.5L13.9,3z"/>
</svg>
