<?xml version="1.0" encoding="utf-8"?>
<!-- Generator: Adobe Illustrator 21.0.2, SVG Export Plug-In . SVG Version: 6.00 Build 0)  -->
<svg version="1.1" id="Layer_1" xmlns:sketch="http://www.bohemiancoding.com/sketch/ns"
	 xmlns="http://www.w3.org/2000/svg" xmlns:xlink="http://www.w3.org/1999/xlink" x="0px" y="0px" viewBox="0 0 32 24"
	 style="enable-background:new 0 0 32 24;" xml:space="preserve">
<style type="text/css">
	.st0{fill:#222222;}
</style>
<title></title>
<desc></desc>
<g id="Icons-for-Export">
	<g id="Desserts-inactive" transform="translate(0.000000, -8.000000)">
		<path id="Rectangle-15" class="st0" d="M14,19.5V19v-1h-1v1.5c0,0.8-0.4,1.5-1,1.5c-0.6,0-1-0.7-1-1.5V16h-0.5H9L5,27h2l2-5.5
			C9,21.8,9.2,22,9.5,22s0.5-0.2,0.5-0.5S9.8,21,9.5,21c-0.2,0-0.3,0.1-0.4,0.2l0.9-2.4V20c0,1.1,0.9,2,2,2c0.4,0,0.7-0.1,1-0.3V23
			c0,1.1,0.9,2,2,2c1.1,0,2-0.9,2-2v-1h-1v0.5c0,0.8-0.4,1.5-1,1.5c-0.6,0-1-0.7-1-1.5V19.5z M16,22v-1v-1c0-1.1,0.9-2,2-2v1
			c-0.6,0-1,0.7-1,1.5V22H16z M23.9,23.9L25,27h2l-4-11h-1.5l0,0H21v0.5c0,0.8-0.4,1.5-1,1.5v1c0.7,0,1.4-0.4,1.7-1l1.8,5
			c0,0,0,0,0,0c-0.3,0-0.5,0.2-0.5,0.5s0.2,0.5,0.5,0.5C23.6,24,23.8,23.9,23.9,23.9L23.9,23.9L23.9,23.9z M30,29h2v-2H0v2h2l1,1H2
			v2h28v-2h-1L30,29L30,29L30,29z M28,29H4l1,1h22L28,29L28,29L28,29z M15,9c3.8-0.5,7.4,2.1,7.9,6c0,0.3,0.1,0.7,0.1,1
			c-1,0-2,0-2,0c0,0,0-0.5,0-0.7c-0.4-2.7-2.9-4.6-5.6-4.3c-2.5,0.4-4.3,2.5-4.3,5H9C9,12.5,11.5,9.5,15,9L15,9z M18,18h2v1h-2V18
			L18,18z M9.5,26c0.3,0,0.5-0.2,0.5-0.5S9.8,25,9.5,25S9,25.2,9,25.5S9.2,26,9.5,26L9.5,26z M11.5,24c0.3,0,0.5-0.2,0.5-0.5
			S11.8,23,11.5,23S11,23.2,11,23.5S11.2,24,11.5,24L11.5,24z M13.5,26c0.3,0,0.5-0.2,0.5-0.5S13.8,25,13.5,25S13,25.2,13,25.5
			S13.2,26,13.5,26L13.5,26z M17.5,26c0.3,0,0.5-0.2,0.5-0.5S17.8,25,17.5,25S17,25.2,17,25.5S17.2,26,17.5,26L17.5,26z M21.5,26
			c0.3,0,0.5-0.2,0.5-0.5S21.8,25,21.5,25S21,25.2,21,25.5S21.2,26,21.5,26L21.5,26z M19.5,24c0.3,0,0.5-0.2,0.5-0.5
			S19.8,23,19.5,23S19,23.2,19,23.5S19.2,24,19.5,24L19.5,24z M21.5,22c0.3,0,0.5-0.2,0.5-0.5S21.8,21,21.5,21S21,21.2,21,21.5
			S21.2,22,21.5,22L21.5,22z M17.5,22c0.3,0,0.5-0.2,0.5-0.5S17.8,21,17.5,21S17,21.2,17,21.5S17.2,22,17.5,22L17.5,22z"/>
	</g>
</g>
</svg>
