<?xml version="1.0" encoding="utf-8"?>
<!-- Generator: Adobe Illustrator 21.0.2, SVG Export Plug-In . SVG Version: 6.00 Build 0)  -->
<svg version="1.1" id="Layer_1" xmlns="http://www.w3.org/2000/svg" xmlns:xlink="http://www.w3.org/1999/xlink" x="0px" y="0px"
	 viewBox="0 0 24 24" style="enable-background:new 0 0 24 24;" xml:space="preserve">
<style type="text/css">
	.st0{fill:#111111;}
</style>
<g>
	<path class="st0" d="M15,6H4C2.9,6,2,6.9,2,8v11c0,1.1,0.9,2,2,2h11c1.1,0,2-0.9,2-2V8C17,6.9,16.1,6,15,6z M15,19H4V8h11V19z"/>
	<path class="st0" d="M19,2H8C6.9,2,6,2.9,6,4h13v13c1.1,0,2-0.9,2-2V4C21,2.9,20.1,2,19,2z"/>
</g>
</svg>
