<?xml version="1.0" encoding="utf-8"?>
<!-- Generator: Adobe Illustrator 21.0.2, SVG Export Plug-In . SVG Version: 6.00 Build 0)  -->
<svg version="1.1" id="Layer_1" xmlns:sketch="http://www.bohemiancoding.com/sketch/ns"
	 xmlns="http://www.w3.org/2000/svg" xmlns:xlink="http://www.w3.org/1999/xlink" x="0px" y="0px" viewBox="0 0 32 24"
	 style="enable-background:new 0 0 32 24;" xml:space="preserve">
<style type="text/css">
	.st0{fill:#222222;}
</style>
<title></title>
<desc></desc>
<g id="Icons-for-Export">
	<g id="Entrees-Inactve" transform="translate(0.000000, -8.000000)">
		<g id="Group" transform="translate(0.000000, 8.000000)">
			<path id="Path" class="st0" d="M0,17h32v2H0V17L0,17z M3,22h26v2H3V22L3,22z M4,19l2,3H4l-2-3H4z M30,19h-2l-2,3h2L30,19L30,19z"
				/>
			<path id="Chicken-Leg" class="st0" d="M23.1,15h2.5l0,0H27v-1c0-0.6,0.4-1,1-1s1,0.4,1,1v4h2v-4c0-1.7-1.3-3-3-3
				c-1.3,0-2.4,0.8-2.8,2h-2.9l0,0c-1.6-2.9-5.3-5-9.7-5C6.8,8,2.1,11.6,2.1,16c0,0.3,0,0.7,0.1,1l0,0h2c-0.1-0.3-0.1-0.7-0.1-1
				c0-2.3,2-4.5,4.9-5.4l0,0V13h1v-2.7c0.6-0.1,1.3-0.2,2-0.3l0,0v3h1v-3c0.7,0,1.4,0.1,2,0.2V13h1v-2.5l0,0c2.6,0.8,4.5,2.5,5,4.5
				h1v3h1.1V15z"/>
			<path id="Oval-15-Copy" class="st0" d="M14,6c-1.3,0-2.5,0.9-2.9,2.1C10.4,8.1,9.7,8.8,9,9c0-3,2.4-5,5-5c0.2,0,0.4,0,0.7,0
				c1.1-2.4,3.5-4,6.3-4c2.4,0,4.5,1.2,5.7,3C29.7,3.1,32,5.5,32,8.5c0,1.5-0.6,2.8-1.5,3.8c-0.4-0.6-1-1-1.6-1.2
				c0.7-0.6,1.2-1.6,1.2-2.6C30,6.6,28.4,5,26.5,5c-0.1,0-0.3,0-0.4,0c-0.8,0.3-1.5,1-1.8,1.9l-0.5-0.1l-0.5-0.1
				c0.3-1,1-1.8,1.9-2.3C24.3,2.9,22.8,2,21,2c-2.3,0-4.3,1.6-4.8,3.7c0.3-0.1,0.7-0.2,1.1-0.3c2.2-0.3,4.2,1.3,4.5,3.5l-0.5,0.1
				L20.7,9c-0.2-1.6-1.7-2.8-3.3-2.6c-1.6,0.2-2.8,1.7-2.6,3.3l-0.5,0.1l-0.5,0.1c-0.2-1.4,0.4-2.8,1.5-3.6C14.9,6.1,14.4,6,14,6z"
				/>
		</g>
	</g>
</g>
</svg>
