<?xml version="1.0" encoding="utf-8"?>
<!-- Generator: Adobe Illustrator 21.0.2, SVG Export Plug-In . SVG Version: 6.00 Build 0)  -->
<svg version="1.1" id="Layer_1" xmlns="http://www.w3.org/2000/svg" xmlns:xlink="http://www.w3.org/1999/xlink" x="0px" y="0px"
	 viewBox="0 0 27.8 27.8" style="enable-background:new 0 0 27.8 27.8;" xml:space="preserve">
<style type="text/css">
	.st0{fill:#303030;}
</style>
<g id="Padding__x26__Artboard">
</g>
<g id="Icons">
	<path class="st0" d="M13.8,0.3C8.3,0.3,3.8,4.8,3.8,10.3c0,1.7,0.4,3.4,1.2,4.8c0,0,0,0,0,0.1l7.8,11.6c0.2,0.3,0.6,0.5,1,0.5
		c0.4,0,0.8-0.2,1-0.5l7.8-11.6c0,0,0,0,0,0c0.8-1.5,1.3-3.2,1.3-4.9C23.9,4.8,19.4,0.3,13.8,0.3z M8.3,11.7c-0.1-1.5,0.4-2.9,1.4-4
		c1-1.1,2.3-1.8,3.8-1.9c1.5-0.1,2.9,0.4,4,1.4c1.1,1,1.8,2.3,1.9,3.8s-0.4,2.9-1.4,4c-1,1.1-2.3,1.8-3.8,1.9c-0.1,0-0.2,0-0.4,0
		c-1.3,0-2.6-0.5-3.6-1.4C9.1,14.5,8.4,13.2,8.3,11.7z M15.1,2.7c2.1,0.1,4.1,1.2,5.3,3c0.1,0.2,0.1,0.4-0.1,0.5
		c-0.1,0-0.1,0.1-0.2,0.1c-0.1,0-0.2-0.1-0.3-0.2c-1-1.6-2.8-2.6-4.7-2.7c-0.2,0-0.3-0.2-0.3-0.4C14.7,2.9,14.9,2.7,15.1,2.7z
		 M21,9.9C21,9.9,21,9.9,21,9.9c-0.2,0-0.4-0.2-0.4-0.4c0-0.6,0-1.3-0.2-1.9c-0.1-0.2,0.1-0.4,0.2-0.4c0.2-0.1,0.4,0.1,0.4,0.2
		c0.2,0.7,0.3,1.4,0.2,2.1C21.4,9.8,21.2,9.9,21,9.9z"/>
</g>
</svg>
