<?xml version="1.0" encoding="UTF-8"?>
<svg width="346px" height="346px" viewBox="0 0 346 346" version="1.1" xmlns="http://www.w3.org/2000/svg" xmlns:xlink="http://www.w3.org/1999/xlink">
    <!-- Generator: Sketch 46.2 (44496) - http://www.bohemiancoding.com/sketch -->
    <title>oo-btn</title>
    <desc>Created with Sketch.</desc>
    <defs></defs>
    <g id="Page-1" stroke="none" stroke-width="1" fill="none" fill-rule="evenodd">
        <path d="M172.873049,332.119809 L159.630029,345.492384 L148.583524,330.254992 L133.454392,341.449308 L124.863325,324.704252 L108.202696,333.457924 L102.268434,315.597692 L84.4668178,321.705542 L81.3284541,303.148763 L62.8031068,306.467628 L62.5342024,287.649258 L43.719342,288.101346 L46.3261997,269.462471 L27.6628306,267.037186 L33.0843479,249.014686 L15.0099237,243.768874 L23.1190248,226.785181 L6.05719461,218.8418 L16.6638091,203.294997 L1.01448779,192.840233 L13.8700057,179.094724 L-9.88098492e-15,166.373627 L14.8030987,154.751595 L3.03750996,140.062338 L19.4412175,130.836194 L10.055821,114.52308 L27.6756483,107.909077 L20.8904299,90.3544714 L39.3133832,86.5076354 L35.2873826,68.1230039 L54.0816434,67.1335018 L52.9092267,48.3497643 L71.6342735,50.2407892 L73.3429211,31.4982206 L91.5598548,36.2254485 L96.1095174,17.9633586 L113.391348,25.4159873 L120.675386,8.06242417 L136.617043,18.0657703 L146.464723,2.02748669 L160.692547,14.3470804 L172.873049,0 L185.053552,14.3470804 L199.281375,2.02748669 L209.129056,18.0657703 L225.070713,8.06242417 L232.35475,25.4159873 L249.636581,17.9633586 L254.186244,36.2254485 L272.403178,31.4982206 L274.111825,50.2407892 L292.836872,48.3497643 L291.664455,67.1335018 L310.458716,68.1230039 L306.432715,86.5076354 L324.855669,90.3544714 L318.07045,107.909077 L335.690278,114.52308 L326.304881,130.836194 L342.708589,140.062338 L330.943,154.751595 L345.746099,166.373627 L331.876093,179.094724 L344.731611,192.840233 L329.082289,203.294997 L339.688904,218.8418 L322.627074,226.785181 L330.736175,243.768874 L312.661751,249.014686 L318.083268,267.037186 L299.419899,269.462471 L302.026757,288.101346 L283.211896,287.649258 L282.942992,306.467628 L264.417645,303.148763 L261.279281,321.705542 L243.477665,315.597692 L237.543403,333.457924 L220.882773,324.704252 L212.291706,341.449308 L197.162574,330.254992 L186.11607,345.492384 L172.873049,332.119809 Z M173.373049,323 C255.939619,323 322.873049,256.06657 322.873049,173.5 C322.873049,90.9334299 255.939619,24 173.373049,24 C90.8064792,24 23.8730493,90.9334299 23.8730493,173.5 C23.8730493,256.06657 90.8064792,323 173.373049,323 Z" id="Combined-Shape" fill="#262626" opacity="0.767549819"></path>
        <circle id="Oval-2" fill="#262626" opacity="0.767549819" cx="173.5" cy="173.5" r="146.5"></circle>
        <text id="Order-Online" font-family="Montserrat-Light, Montserrat" font-size="48" font-weight="300" fill="#FFFFFF">
            <tspan x="106.488" y="142">Order</tspan>
            <tspan x="241.512" y="142" font-size="72"></tspan>
            <tspan x="57.144" y="200" font-size="72">Online</tspan>
        </text>
    </g>
</svg>