<?xml version="1.0" encoding="utf-8"?>
<!-- Generator: Adobe Illustrator 21.0.2, SVG Export Plug-In . SVG Version: 6.00 Build 0)  -->
<svg version="1.1" id="Layer_1" xmlns="http://www.w3.org/2000/svg" xmlns:xlink="http://www.w3.org/1999/xlink" x="0px" y="0px"
	 viewBox="0 0 22 22" style="enable-background:new 0 0 22 22;" xml:space="preserve">
<style type="text/css">
	.st0{fill:#303030;}
</style>
<g id="Padding__x26__Artboard">
</g>
<g id="Icons">
	<g>
		<path class="st0" d="M11,10.6c2.9,0,5.2-2.3,5.2-5.2S13.8,0.3,11,0.3S5.8,2.6,5.8,5.5S8.1,10.6,11,10.6z M7.6,4.8
			c0.1-0.3,0.1-0.5,0.2-0.7c0.1-0.2,0.3-0.3,0.5-0.2C8.5,4,8.6,4.2,8.5,4.4C8.4,4.6,8.3,4.8,8.3,5c0,0.2-0.2,0.3-0.3,0.3
			c0,0,0,0-0.1,0C7.7,5.2,7.6,5,7.6,4.8z M11.4,2.4c0,0.2-0.2,0.4-0.4,0.4c-0.7,0-1.3,0.3-1.9,0.7C9.1,3.5,9,3.6,8.9,3.6
			c-0.1,0-0.2,0-0.3-0.1C8.5,3.3,8.5,3.1,8.7,3c0.6-0.6,1.5-0.9,2.3-0.9C11.2,2.1,11.4,2.2,11.4,2.4z"/>
		<path class="st0" d="M11,10.9c-5.8,0-10.4,4.7-10.4,10.4c0,0.2,0.2,0.3,0.4,0.3h20.2c0.2,0,0.4-0.2,0.4-0.3
			C21.4,15.6,16.8,10.9,11,10.9z"/>
	</g>
</g>
</svg>
