<?xml version="1.0" encoding="utf-8"?>
<!-- Generator: Adobe Illustrator 21.0.2, SVG Export Plug-In . SVG Version: 6.00 Build 0)  -->
<svg version="1.1" id="Phone" xmlns="http://www.w3.org/2000/svg" xmlns:xlink="http://www.w3.org/1999/xlink" x="0px" y="0px"
	 viewBox="0 0 139 139" style="enable-background:new 0 0 139 139;" xml:space="preserve">
<style type="text/css">
	.st0{fill:#FFFFFF;}
</style>
<path class="st0" d="M67.3,82C58,74.3,51.8,64.9,48.6,59.5L46.1,55c0.8-0.9,7.3-7.9,10.1-11.6c3.5-4.7-1.6-9-1.6-9
	S40.3,19.9,37,17.1c-3.3-2.9-7.1-1.3-7.1-1.3c-6.9,4.5-14,8.3-14.5,27c0,17.4,13.2,35.4,27.6,49.4c14.3,15.7,34,31.5,53.1,31.5
	c18.6-0.4,22.5-7.6,27-14.5c0,0,1.6-3.8-1.3-7.1c-2.9-3.3-17.3-17.7-17.3-17.7s-4.3-5.1-9-1.6c-3.5,2.6-9.9,8.5-11.4,9.9
	C84.2,92.7,73.6,87.1,67.3,82z"/>
</svg>
