<?xml version="1.0" encoding="utf-8"?>
<!-- Generator: Adobe Illustrator 21.0.2, SVG Export Plug-In . SVG Version: 6.00 Build 0)  -->
<svg version="1.1" id="Layer_1" xmlns="http://www.w3.org/2000/svg" xmlns:xlink="http://www.w3.org/1999/xlink" x="0px" y="0px"
	 viewBox="0 0 256 256" style="enable-background:new 0 0 256 256;" xml:space="preserve">
<style type="text/css">
	.st0{fill:none;stroke:#222222;stroke-width:8;stroke-linecap:round;stroke-linejoin:round;stroke-miterlimit:10;}
</style>
<g>
	<path class="st0" d="M243.6,188.5v17.7c0,6-4.6,16.4-16.7,16.4c-12.1,0-12,0-98.9,0c0,0-86.9,0-98.9,0c-12.1,0-16.7-10.5-16.7-16.4
		v-18c1.6,0.7,3.4,1.2,5.5,1.2h221.4C240.9,189.4,242.3,189.1,243.6,188.5z"/>
	<path class="st0" d="M238.7,145.6v18.5H17.3v-24.3c11.9,1.1,26.4,6.3,43.8,6.3c19.5,0,29.2-8,48.1-8c18.8,0,29.5,8,47.2,8
		s28.1-8.4,45.8-8.4s7.5,8.4,31.7,8.4C235.6,146.1,237.2,145.9,238.7,145.6z"/>
	<path class="st0" d="M243.6,188.5c-1.3,0.6-2.7,0.9-4.4,0.9H17.9c-2.1,0-3.9-0.4-5.5-1.2c-10.5-5-8.7-24.1,5.5-24.1h221.4
		C252.4,164.1,253.9,184.1,243.6,188.5z"/>
	<path class="st0" d="M238.7,145.6c-0.5,0.1-1,0.2-1.5,0.2c-1.1,0.2-2.2,0.2-3.4,0.2c-24.2,0-14-8.4-31.7-8.4S174,146,156.3,146
		s-28.3-8-47.2-8c-18.8,0-28.6,8-48.1,8c-17.4,0-31.9-5.2-43.8-6.3c-0.6-0.1-1.1-0.1-1.7-0.1c-0.9-0.1-1.7-0.1-2.6-0.1
		c-12.7,0-11.5-24.1,0-24.1H20c6.3,4.7,14.1,6.1,19.6,6.1h176.8c5.5,0,13.2-1.4,19.5-6C256.4,117,257.3,141.9,238.7,145.6z"/>
	<path class="st0" d="M247,90.6c0,12.6-4.9,20.3-11.1,24.9c-6.3,4.6-14,6-19.5,6H39.6c-5.5,0-13.3-1.4-19.6-6.1
		c-6.2-4.6-11-12.3-11-24.8c0-25.3,21.8-57.3,119-57.3C225.2,33.3,247,65.3,247,90.6z"/>
	<ellipse class="st0" cx="66.3" cy="89.2" rx="0.8" ry="1.9"/>
	<ellipse class="st0" cx="96.7" cy="65.6" rx="0.8" ry="1.9"/>
	<ellipse class="st0" cx="126.9" cy="89" rx="0.8" ry="1.9"/>
	<ellipse class="st0" cx="157.3" cy="65.4" rx="0.8" ry="1.9"/>
	<ellipse class="st0" cx="187.4" cy="88.7" rx="0.8" ry="1.9"/>
</g>
</svg>
