<?xml version="1.0" encoding="utf-8"?>
<!-- Generator: Adobe Illustrator 21.0.2, SVG Export Plug-In . SVG Version: 6.00 Build 0)  -->
<svg version="1.1" id="Layer_1" xmlns:sketch="http://www.bohemiancoding.com/sketch/ns"
	 xmlns="http://www.w3.org/2000/svg" xmlns:xlink="http://www.w3.org/1999/xlink" x="0px" y="0px" viewBox="0 0 31 25"
	 style="enable-background:new 0 0 31 25;" xml:space="preserve">
<style type="text/css">
	.st0{fill:#222222;}
</style>
<title></title>
<desc></desc>
<g id="Icons-for-Export">
	<g id="Soups" transform="translate(-1.000000, -7.000000)">
		<g id="Group" transform="translate(1.000000, 7.000000)">
			<path id="Oval-16" class="st0" d="M2,12c0,3.5,1.4,6.7,3.6,9l0,0h18.8c2.2-2.3,3.6-5.5,3.6-9H2L2,12L2,12L2,12z M5.3,25H3v-2h1.8
				C1.8,20.3,0,16.3,0,12l0,0v-2h30v2c0,4.3-1.8,8.3-4.8,11H27v2h-2.3H5.3L5.3,25z M6.7,22c0.4,0.4,0.9,0.7,1.4,1h13.9
				c0.5-0.3,0.9-0.6,1.4-1H6.7L6.7,22L6.7,22L6.7,22z"/>
			<path id="Rectangle-31" class="st0" d="M22,10l9-5v2l-9,5V10z"/>
			<path id="Path" class="st0" d="M11,0c0,0.2,0,0.3,0,0.5C11,2.4,12.1,4,13.5,4V3.5V3C12.8,3,12,1.9,12,0.5c0-0.2,0-0.3,0-0.5H11
				L11,0L11,0z M16,7c0-0.2,0-0.3,0-0.5C16,4.6,14.9,3,13.5,3v0.5V4C14.2,4,15,5.1,15,6.5c0,0.2,0,0.3,0,0.5H16L16,7L16,7z"/>
			<path id="Path_1_" class="st0" d="M5,0c0,0.2,0,0.3,0,0.5C5,2.4,6.1,4,7.5,4V3.5V3C6.8,3,6,1.9,6,0.5C6,0.3,6,0.2,6,0H5L5,0L5,0z
				 M10,7c0-0.2,0-0.3,0-0.5C10,4.6,8.9,3,7.5,3v0.5V4C8.2,4,9,5.1,9,6.5C9,6.7,9,6.8,9,7H10L10,7L10,7z"/>
			<path id="Path_2_" class="st0" d="M17,0c0,0.2,0,0.3,0,0.5C17,2.4,18.1,4,19.5,4V3.5V3C18.8,3,18,1.9,18,0.5c0-0.2,0-0.3,0-0.5
				H17L17,0L17,0z M22,7c0-0.2,0-0.3,0-0.5C22,4.6,20.9,3,19.5,3v0.5V4C20.2,4,21,5.1,21,6.5c0,0.2,0,0.3,0,0.5H22L22,7L22,7z"/>
		</g>
	</g>
</g>
</svg>
