<?xml version="1.0" encoding="utf-8"?>
<!-- Generator: Adobe Illustrator 21.0.2, SVG Export Plug-In . SVG Version: 6.00 Build 0)  -->
<svg version="1.1" id="Layer_1" xmlns="http://www.w3.org/2000/svg" xmlns:xlink="http://www.w3.org/1999/xlink" x="0px" y="0px"
	 viewBox="0 0 283 281" style="enable-background:new 0 0 283 281;" xml:space="preserve">
<style type="text/css">
	.st0{opacity:0.75;}
	.st1{fill:none;stroke:#FFFFFF;stroke-width:2;stroke-miterlimit:10;}
	.st2{fill:#FFFFFF;}
	.st3{fill:none;}
	.st4{fill:#111111;}
	.st5{font-family:'ClassicRomanStd-Regular';}
	.st6{font-size:24px;}
	.st7{font-size:27px;}
	.st8{font-size:23px;}
</style>
<polygon id="Shape_13" class="st0" points="49.4,0 235.6,0 235.6,237.7 142.5,281 49.4,237.9 "/>
<g>
	<path class="st1" d="M172.6,149.7c-23.4,2.1-44.8,2.1-68.2,0c-4.8-0.3-8.9-4.3-9.8-9.1c-2.2-9-2.2-17.4,0-26.4c1-4.8,5-8.8,9.8-9.1
		c23.4-2.1,44.8-2.1,68.2,0c4.8,0.3,8.9,4.3,9.8,9.1c2.2,9,2.2,17.4,0,26.4C181.4,145.5,177.4,149.4,172.6,149.7z"/>
</g>
<g>
	<path class="st2" d="M170.4,147.3c-21.9,1.8-41.9,1.8-63.7,0c-4.5-0.3-8.3-3.8-9.2-8.1c-2.1-8-2.1-15.5,0-23.5
		c0.9-4.3,4.7-7.8,9.2-8.1c21.9-1.8,41.9-1.8,63.7,0c4.5,0.3,8.3,3.8,9.2,8.1c2.1,8,2.1,15.5,0,23.5
		C178.7,143.5,174.9,147,170.4,147.3z"/>
</g>
<rect x="155" y="121" class="st2" width="0" height="3"/>
<rect x="24.2" y="123" class="st3" width="236.7" height="24.5"/>
<text transform="matrix(1 0 0 1 116.0405 135.3599)" class="st4 st5 st6">360°</text>
<rect x="23.2" y="170" class="st3" width="236.7" height="31"/>
<text transform="matrix(1.0259 0 0 1 60.6776 183.9053)" class="st2 st5 st7">Virtual Tour</text>
<rect x="48" y="71" class="st3" width="185" height="20"/>
<text transform="matrix(1.1024 0 0 1 105.532 82.8447)" class="st2 st5 st8">Take a</text>
</svg>
