<?xml version="1.0" encoding="utf-8"?>
<!-- Generator: Adobe Illustrator 21.0.2, SVG Export Plug-In . SVG Version: 6.00 Build 0)  -->
<svg version="1.1" id="Layer_1" xmlns="http://www.w3.org/2000/svg" xmlns:xlink="http://www.w3.org/1999/xlink" x="0px" y="0px"
	 viewBox="0 0 283 281" style="enable-background:new 0 0 283 281;" xml:space="preserve">
<style type="text/css">
	.st0{opacity:0.75;}
	.st1{fill:#FFFFFF;}
	.st2{fill:none;}
	.st3{fill:#111111;}
	.st4{font-family:'KelsonSans-Regular';}
	.st5{font-size:24px;}
	.st6{font-size:31px;}
	.st7{font-size:23px;}
</style>
<polygon id="Shape_13" class="st0" points="40.5,0 240.5,0 240.5,235.8 140.5,281 40.5,235.8 "/>
<g>
	<path class="st1" d="M172.6,149.7c-23.4,2.1-44.8,2.1-68.2,0c-4.8-0.3-8.9-4.3-9.8-9.1c-2.2-9-2.2-17.4,0-26.4c1-4.8,5-8.8,9.8-9.1
		c23.4-2.1,44.8-2.1,68.2,0c4.8,0.3,8.9,4.3,9.8,9.1c2.2,9,2.2,17.4,0,26.4C181.4,145.5,177.4,149.4,172.6,149.7z"/>
</g>
<rect x="155" y="121" class="st1" width="0" height="3"/>
<rect x="23.2" y="118" class="st2" width="236.7" height="24.5"/>
<text transform="matrix(1 0 0 1 118.6284 136.7681)" class="st3 st4 st5">360°</text>
<rect x="23.2" y="166" class="st2" width="236.7" height="31"/>
<text transform="matrix(1.0259 0 0 1 63.7303 190.2422)" class="st1 st4 st6">Virtual Tour</text>
<rect x="17.2" y="71" class="st2" width="236.7" height="20"/>
<text transform="matrix(1.1024 0 0 1 100.282 88.9863)" class="st1 st4 st7">Take a</text>
</svg>
