<?xml version="1.0" encoding="utf-8"?>
<!-- Generator: Adobe Illustrator 21.0.2, SVG Export Plug-In . SVG Version: 6.00 Build 0)  -->
<svg version="1.1" id="Layer_1" xmlns:sketch="http://www.bohemiancoding.com/sketch/ns"
	 xmlns="http://www.w3.org/2000/svg" xmlns:xlink="http://www.w3.org/1999/xlink" x="0px" y="0px" viewBox="0 0 32 32"
	 style="enable-background:new 0 0 32 32;" xml:space="preserve">
<title></title>
<desc></desc>
<g id="Page-1">
	<g id="icon-93-inbox-upload">
		<path id="inbox-upload" d="M16,6l-3.2,3.2L12,8.5L16.5,4L21,8.5l-0.8,0.8L17,6v11h-1V6L16,6z M21,19h6.8l-4.4-7H18v-1h6l5,8v1v8H4
			v-9l5-8h6l0,0v1H9.6l-4.4,7H12v2c0,1.1,0.9,2,2,2h5c1.1,0,2-0.9,2-2V19L21,19L21,19z"/>
	</g>
</g>
</svg>
