<?xml version="1.0" encoding="utf-8"?>
<!-- Generator: Adobe Illustrator 21.0.2, SVG Export Plug-In . SVG Version: 6.00 Build 0)  -->
<svg version="1.1" id="Layer_1" xmlns="http://www.w3.org/2000/svg" xmlns:xlink="http://www.w3.org/1999/xlink" x="0px" y="0px"
	 viewBox="0 0 49.2 49.2" style="enable-background:new 0 0 49.2 49.2;" xml:space="preserve">
<style type="text/css">
	.st0{fill:#FFFFFF;}
</style>
<g>
	<polygon class="st0" points="14.1,26.7 15.9,26.7 15.9,35.6 17.6,35.6 17.6,26.7 19.4,26.7 19.4,25.2 14.1,25.2 	"/>
	<path class="st0" d="M24.7,19.3c0.2,0,0.4-0.1,0.6-0.2c0.1-0.1,0.2-0.3,0.2-0.5V14c0-0.2-0.1-0.3-0.2-0.4c-0.1-0.1-0.3-0.2-0.6-0.2
		c-0.2,0-0.4,0.1-0.5,0.2C24,13.7,24,13.8,24,14v4.6c0,0.2,0.1,0.4,0.2,0.5C24.3,19.3,24.5,19.3,24.7,19.3z"/>
	<path class="st0" d="M28.5,27.8c-0.2,0-0.5,0.1-0.7,0.2c-0.2,0.1-0.4,0.3-0.7,0.5v-3.3h-1.5v10.4h1.5V35c0.2,0.2,0.4,0.4,0.7,0.5
		c0.2,0.1,0.5,0.2,0.8,0.2c0.5,0,0.8-0.1,1-0.4c0.2-0.3,0.4-0.7,0.4-1.2v-4.2c0-0.6-0.1-1.1-0.4-1.4C29.3,28,29,27.8,28.5,27.8z
		 M28.4,33.8c0,0.2,0,0.4-0.1,0.5c-0.1,0.1-0.2,0.2-0.4,0.2c-0.1,0-0.2,0-0.4-0.1c-0.1-0.1-0.2-0.1-0.4-0.3v-4.8
		c0.1-0.1,0.2-0.2,0.3-0.2c0.1-0.1,0.2-0.1,0.3-0.1c0.2,0,0.4,0.1,0.5,0.2c0.1,0.1,0.2,0.3,0.2,0.6V33.8z"/>
	<path class="st0" d="M22.9,33.7c-0.1,0.2-0.3,0.3-0.5,0.4c-0.2,0.1-0.3,0.2-0.4,0.2c-0.1,0-0.2,0-0.3-0.1c-0.1-0.1-0.1-0.2-0.1-0.4
		v-5.9h-1.5v6.4c0,0.5,0.1,0.8,0.3,1c0.2,0.2,0.4,0.3,0.8,0.3c0.3,0,0.6-0.1,0.9-0.2c0.3-0.2,0.6-0.4,0.9-0.7v0.8h1.5v-7.6h-1.5
		L22.9,33.7L22.9,33.7z"/>
	<path class="st0" d="M24.6,0C11,0,0,11,0,24.6c0,13.6,11,24.6,24.6,24.6s24.6-11,24.6-24.6C49.2,11,38.2,0,24.6,0z M28.6,12.2h1.7
		v6.5c0,0.2,0,0.3,0.1,0.4c0.1,0.1,0.2,0.1,0.3,0.1c0.1,0,0.3-0.1,0.5-0.2c0.2-0.1,0.4-0.3,0.5-0.5v-6.4h1.7v8.4h-1.7v-0.9
		c-0.3,0.3-0.6,0.6-1,0.8c-0.3,0.2-0.7,0.3-1,0.3c-0.4,0-0.7-0.1-0.9-0.4c-0.2-0.2-0.3-0.6-0.3-1.1C28.6,19.2,28.6,12.2,28.6,12.2z
		 M22.2,14.1c0-0.6,0.2-1.2,0.7-1.6c0.5-0.4,1.1-0.6,1.9-0.6c0.7,0,1.3,0.2,1.8,0.6c0.5,0.4,0.7,0.9,0.7,1.6v4.4
		c0,0.7-0.2,1.3-0.7,1.7c-0.4,0.4-1.1,0.6-1.8,0.6c-0.8,0-1.4-0.2-1.8-0.6c-0.5-0.4-0.7-1-0.7-1.7L22.2,14.1L22.2,14.1z M17.5,9.2
		l1.3,4.6h0.1l1.2-4.6h2l-2.3,6.7v4.7h-1.9v-4.5l-2.3-6.9H17.5z M40.1,33.2c0,3-2.5,5.5-5.5,5.5H15.4c-3,0-5.5-2.5-5.5-5.5v-4.4
		c0-3,2.5-5.5,5.5-5.5h19.2c3,0,5.5,2.5,5.5,5.5V33.2z"/>
	<path class="st0" d="M33.1,27.7c-0.7,0-1.2,0.2-1.7,0.6c-0.4,0.4-0.7,1-0.7,1.6v3.4c0,0.7,0.2,1.3,0.6,1.7c0.4,0.4,0.9,0.6,1.6,0.6
		c0.8,0,1.3-0.2,1.7-0.6c0.4-0.4,0.6-1,0.6-1.8V33h-1.6v0.3c0,0.5-0.1,0.7-0.2,0.9s-0.3,0.2-0.5,0.2c-0.2,0-0.4-0.1-0.5-0.2
		c-0.1-0.2-0.1-0.4-0.1-0.8v-1.4h2.9v-2c0-0.7-0.2-1.3-0.6-1.7C34.3,27.9,33.8,27.7,33.1,27.7z M33.7,30.7h-1.3V30
		c0-0.3,0-0.6,0.2-0.7c0.1-0.1,0.3-0.2,0.5-0.2c0.2,0,0.4,0.1,0.5,0.2c0.1,0.1,0.2,0.4,0.2,0.7L33.7,30.7L33.7,30.7z"/>
</g>
</svg>
