<?xml version="1.0" encoding="utf-8"?>
<!-- Generator: Adobe Illustrator 21.0.2, SVG Export Plug-In . SVG Version: 6.00 Build 0)  -->
<svg version="1.1" id="Layer_1" xmlns="http://www.w3.org/2000/svg" xmlns:xlink="http://www.w3.org/1999/xlink" x="0px" y="0px"
	 viewBox="0 0 512 512" style="enable-background:new 0 0 512 512;" xml:space="preserve">
<style type="text/css">
	.st0{fill:#FFFFFF;}
</style>
<g>
	<path class="st0" d="M256,0C114.6,0,0,114.6,0,256s114.6,256,256,256s256-114.6,256-256S397.4,0,256,0z M391.1,317.4
		c-2.4,19.9-7.1,25.8-10.5,28.4c-5.4,4.2-15.2,5.7-28.3,6.6c-21,1.4-56.6,2.3-95.2,2.3c-38.6,0-74.2-0.9-95.2-2.3
		c-13.1-0.9-22.9-2.4-28.3-6.6c-3.4-2.7-8.1-8.5-10.5-28.4c-3.4-28.7-3.4-94.1,0-122.8c2.4-19.9,7.1-25.7,10.5-28.4
		c5.4-4.2,15.2-5.7,28.3-6.6c21-1.5,56.6-2.3,95.2-2.3c38.5,0,74.2,0.9,95.2,2.3c13.1,0.9,22.9,2.4,28.3,6.6
		c3.4,2.7,8.2,8.5,10.5,28.4C394.5,223.3,394.5,288.7,391.1,317.4z"/>
</g>
<polyline class="st0" points="296.5,254.9 214.1,297.9 214.1,212 "/>
</svg>
