<?xml version="1.0" encoding="utf-8"?>
<!-- Generator: Adobe Illustrator 21.0.2, SVG Export Plug-In . SVG Version: 6.00 Build 0)  -->
<svg version="1.1" id="Layer_1" xmlns="http://www.w3.org/2000/svg" xmlns:xlink="http://www.w3.org/1999/xlink" x="0px" y="0px"
	 viewBox="0 0 372 714" style="enable-background:new 0 0 372 714;" xml:space="preserve">
<style type="text/css">
	.st0{fill:#FFFFFF;}
	.st1{fill:#FFFFFF;stroke:#000000;stroke-width:1.2377;stroke-miterlimit:10;}
</style>
<g>
	<path class="st0" d="M163.5,47.5c2.2-0.9-0.7-1.4-0.7-1.4c0.1-1.4,1.1-2.4,1.1-2.4c-8.1-1.3-6.3-8-6.3-8c-4.2-5.2-9.8-9.3-9.8-9.3
		c-4.7-3.8-10-3.7-10-3.7l-3.5,0.4l-4.3,1.2l-6.2,2.2l-2.8-0.3c0,0-7.4-3.7-15.5,1.5c0,0-7.1,4.9-15.8,14.5l-1.9,3.3
		c-0.8,2.4-2.2,2.9-2.2,2.9c-6.1,3.7-10.4,8.5-10.4,8.5c-4.6,4.9-7,10.6-7,10.6l-2,4.6c-2.5,5-6.9,6.5-6.9,6.5
		c-1.8,1.2,0.5,1.4,0.5,1.4l1,0.1c2.2,0.1,1.2,1.6,1.2,1.6c-1.2,1.3-3.2,1.7-3.2,1.7c-2.7,0.3-2.8,1.4-2.8,1.4
		c0.1,1.2,1.3,1.3,1.3,1.3l1.2,0.3c1.5,0.5,0.9,1.9,0.9,1.9c-0.5,1.7,0.5,2.7,0.5,2.7l1.1,1.5c1.1,1.3-1.1,1.7-1.1,1.7l-3.9,0.8
		c-1.7,0.4-1.1,2-1.1,2c0.7,1.9,2.3,3.3,2.3,3.3c1.1,1.1,0.2,2.2,0.2,2.2C54.8,106.4,47,105,47,105c-2.1-0.2-1.9,1.7-1.9,1.7
		c0.5,1.4,2.1,1.6,2.1,1.6l2.5,0.6c1.8,0.4,0.9,1.9,0.9,1.9c-0.7,1.4,0.8,2.5,0.8,2.5l3.5,2.3c6.8,4.5,16.5-3.2,16.5-3.2
		s2.9-1.9,6.2-1c0,0,8.5,2.4,12.7-4.2c1.5-2.4,3.3-3.7,3.3-3.7c2.1-1.8,3.1-3.8,3.1-3.8c1-1.8,3.2-1.5,3.2-1.5l1.8,0.3
		c2.5,0.4,3.1,3.5,3.1,3.5c1.2,4.6,3.4,7,3.4,7l3.1,3.6c3.3,3.6,3.8,4.6,3.8,4.6c1.6,2.1-1,2.4-1,2.4c-2.3,0.3-4.7,1.2-4.7,1.2
		c-15.9,7.8-13.9,25.7-13.9,25.7c-0.4,3.4-2.6,5-2.6,5c-3,2.6-0.3,5.3-0.3,5.3l1.7,2c5,5.3-0.9,15.2-0.9,15.2
		c-0.9,1.9-2.8,0.5-2.8,0.5l-39.3-22c-3.1-1.6-4.5,0.5-4.5,0.5c-1.3,2,1.2,3.6,1.2,3.6l3.9,2.2c1.4,0.9,0.5,1.7,0.5,1.7
		c-1.6,1.4,1.1,2.9,1.1,2.9l31.7,17.8c3.2,1.7,1.9,3.2,1.9,3.2c-1.5,1.5-5.4-1.4-5.4-1.4c-3.7-1.7-3.8,2.7-3.8,2.7
		c-0.5,2.9-2.1,4.2-2.1,4.2c-7.9,7.2-10.5,15.1-10.5,15.1c-6.1,17.1,5.8,27.1,5.8,27.1l4.1,3.7c1.6,1.3,0.5,3.2,0.5,3.2l-1.1,2.1
		c-1.2,2.1-2.7,1.9-2.7,1.9l-1.3,0.2c-2.7,1-3.4,3-3.4,3c-0.8,1.8-2.8,2.6-2.8,2.6l-3.1,1.7c-2.4,1.4-2.4,4.2-2.4,4.2
		c-0.4,2.2-2.6,3.3-2.6,3.3c-2.9,1.5-3.8,4.4-3.8,4.4l-2.3,6.2c-2,4.5,0.1,8,0.1,8c1.1,1.7,0.4,3,0.4,3l-1.8,2.9c-0.8,1-2,0.3-2,0.3
		l-1.9-1.1c-1.3-0.7-1.5-2.4-1.5-2.4c-0.5-1.9-2.8-2.5-2.8-2.5c-2.8-0.5-4.2,1.5-4.2,1.5c-1.9,3.5,1.4,5.6,1.4,5.6
		c1.6,1,3.3,0.4,3.3,0.4c1.1-0.5,2,0,2,0l1.8,1.1c1.6,1,0.7,2.4,0.7,2.4l-1,1.6c-1,1.6-2.5,0.5-2.5,0.5l-1.6-1.1
		c-1.2-0.7-1.5-1.9-1.5-1.9c-0.5-0.9-1.5-1.3-1.5-1.3l-2.2-0.9c-2.8-1-3.7,0.7-3.7,0.7c-1.3,2,0.9,3.7,0.9,3.7l2,1.4
		c1.1,1,2,0.8,2,0.8c1.3-0.5,2.3,0.1,2.3,0.1l1.9,1.1c1.6,0.6,1.2,2.1,1.2,2.1l-0.5,1.1c-0.9,1.5-2.2,1.5-2.2,1.5
		c-1.8,0-2.9,1.4-2.9,1.4c-1.3,1.3-0.1,2-0.1,2c1.4,0.6,0.9,1.9,0.9,1.9c-0.1,0.7,0.3,1.3,0.3,1.3c0.5,1.1-0.1,2.3-0.1,2.3
		c-0.5,2,1.1,3,1.1,3c1.6,0.9,3.1-0.3,3.1-0.3c0.6-0.7,1.5-0.9,1.5-0.9c0.9-0.1,1.5-0.6,1.5-0.6c1-1,2-0.5,2-0.5
		c2,0.9,2.4-0.3,2.4-0.3l0.5-1.5c0.4-1.4-0.3-2.3-0.3-2.3c-0.7-1-0.2-1.7-0.2-1.7c0.2-0.6-0.3-1.1-0.3-1.1c-0.6-0.8,0.3-1.7,0.3-1.7
		c1.5-1.3,2.6-2.2,2.6-2.2c1.2-1.2,2.3-0.3,2.3-0.3l1.8,1.2c1.1,0.7,1.2,1.6,1.2,1.6c0.3,1.4,1.4,1.7,1.4,1.7l2.4,1
		c2.9,1.1,3.8-1.2,3.8-1.2c0.8-1.9-1.1-3.5-1.1-3.5l-1.8-1.3c-1.3-0.9-1.9-0.5-1.9-0.5c-1,0.4-2-0.2-2-0.2l-2-1.1
		c-1.3-0.7-0.4-1.9-0.4-1.9l1.4-2.1c1-1.8,2.8-0.9,2.8-0.9l2.3,1.2c1,0.6,1.2,1.8,1.2,1.8c0.2,1.1,1.3,1.4,1.3,1.4l1.8,0.9
		c2.8,1.2,3.8,0.4,3.8,0.4c2.7-1.6,1-4,1-4c-2.1-2,0.5-1.6,0.5-1.6l7.7,1.4c5.6,1,8.9,2.5,8.9,2.5l13.7,6.5c4.4,2.2,0,4.3,0,4.3
		c-8.4,4.1-24.1,10.7-24.1,10.7c-33.4,15.5-46.4,27.6-46.4,27.6c-15.1,15.3-1.4,32.8-1.4,32.8l6.4,6.8l28.1,25.4
		c20.2,18.2,33,30.5,33,30.5l27.6,27.6c11.3,11.1,17.3,19.4,17.3,19.4l9.9,13.2c6.6,8,11.3,8.9,11.3,8.9c2.9,0.8,5.8,2.3,5.8,2.3
		c11.1,6.8,10.9,21,10.9,21c0,6.6,2.5,12.4,2.5,12.4c3.5,6.2,2.3,17.5,2.3,17.5c-3.9,19.2-7.8,36.5-7.8,36.5
		c-4.1,13.8-5,23.9-5,23.9c-2.6,15.1,1.3,30.5,1.3,30.5c1.1,3.6,1.5,8,1.5,8c0.7,5.3,1.7,7.9,1.7,7.9s1.3,6.1,6.9,7.2
		c0,0,2.6,0.4,4,4l1.3,3.4c0,0,4.4,13.3,22.8,13.3c0,0,5.5,0,10-1.1c0,0,6.3-1.6,5.3-9.8c0,0-1.3-7.9-7.3-14.2l-4.1-4.4
		c0,0-2.3-2.2-3.9-6c0,0-1-1.8-1.2-3.8c-1-6.8,3.4-14.5,3.4-14.5c8.2-16,9.4-35.8,9.4-35.8c1-20.7,9.3-38.4,9.3-38.4
		c9.3-28,10.8-43.3,10.8-43.3l3.4-23.6c3-25.6,8.4-34.9,8.4-34.9c2.5-7.9,6.4-17.7,6.4-17.7l4.4-14.3c13.8-53.6,21.5-92.2,21.5-92.2
		s1.9-10.3,2.5-20.8l0.2-2.5c0.2-2.2,1.9-2.9,1.9-2.9c1.1-0.4,1.8-1,1.8-1c1.6-1.4,2.7-0.6,2.7-0.6c1.3,0.6,3-0.6,3-0.6l2.6-1.7
		c3.6-1.8,7.5-0.2,7.5-0.2l10.4,5.8c9.9,5.8,12.9,0.3,12.9,0.3c3.2-6.1-5.4-10.7-5.4-10.7l-12.6-6.8c-4.4-2.6-3.1-7-3.1-7
		c1.2-6.4,4.1-12.4,4.1-12.4c3.7-6.4,4.7-15.1,4.7-15.1c1.4-10.7,5.8-21.7,5.8-21.7c5.2-12.2,10.3-12.6,10.3-12.6
		c4.5-1.4,6.4-3.5,6.4-3.5c4.5-4.1,8-8.5,8-8.5c2.9-3.7,0.6-8,0.6-8c-3.3-5.8-1.2-9.9-1.2-9.9c1.4-4.1,1.7-9.3,1.7-9.3l-0.2-3.9
		c-0.8-15.5-16.3-23.3-16.3-23.3c-7.2-4.1-14-11.6-14-11.6c-10.5-11.3-23.7-19-23.7-19s-12.6-8.1-26.4-19.1c0,0-16.1-13.1-31.5-13.1
		s0,0,0,0s-8.5,0-13.7,1.2c0,0-3.6,0.6-7.1-0.7c0,0-3.6-2-9.5-1.6c0,0-9.2,0.9-19.5-1.2c0,0-3.6-0.7-1.5-3c0,0-1.5-0.2,0.2-6
		c0,0-0.7-2.7,0.6-5.2c0,0,6.5-9.1-0.2-9.9l-3-0.6c0,0-3.7-1.1-4.2-3.1c0,0-1.1-2.6,3.4-5.7c0,0-2.9-0.2-3.1-5.3c0,0-4-1.5-10.5-2.7
		l-4.8-5.6C167.3,51.3,160.8,48.9,163.5,47.5z M106.4,271.1l-1.3-1.9c-2.8-3.9-6.2-5.4-6.2-5.4l-3.3-1.6c-4.4-2.2-5.8-5.3-5.8-5.3
		l-3.9-7.3c-1.5-2.3-0.5-3.5-0.5-3.5l0.8-1.2c1.4-1.9,3.4-1.2,3.4-1.2c12,4.3,21.2,0.1,21.2,0.1c3.1-1.4,4.4,1.5,4.4,1.5l6.4,13.4
		c2,4,2.5,7.1,2.5,7.1l1.1,4.9c0.5,3.4-2.3,4.5-2.3,4.5c-2.4,1.4-5.9,0.5-5.9,0.5l-4.6-1.1C108,273.6,106.4,271.1,106.4,271.1z
		 M306.2,203l-3.4,3.8c-5.7,5.2-2.9,12.4-2.9,12.4c1.7,7.1-0.6,11.3-0.6,11.3l-5,11.1c-2.1,5.2-5.7,8-5.7,8c-6.1,5.9-10.5-5-10.5-5
		l-4.2-10.9c-4.4-12.6-4.8-20.3-4.8-20.3c-1.5-15.3-4-28.3-4-28.3s-1-5,4.2-10c0,0,2.9-2.7,8.5,0.6l5.2,3.1c0,0,3.5,2.5,7.2,6.4
		c0,0,4.7,6.4,12.6,9.1c0,0,3.5,0.7,4.3,2.3C309.2,200.6,306.2,203,306.2,203z M212.1,378.2c-7,39.1-6.5,68.1-6.5,68.1
		s1.9,13.9-6.8,14.2c0,0-6.5,0-13.7-8.7c0,0-6.8-11.1-17.7-15.1c0,0-6.6-1-14.6-9.7l-8-11.1c0,0-19.9-21.9-32.3-29.8
		c0,0-21.3-11.8-7.8-18.4c0,0,22.6-7.7,47.4-11.5c0,0,33.3-5,56.6-11.6c0,0,9.4-2.8,8.5,8.2L212.1,378.2z"/>
	<path class="st1" d="M181.2,526.7c0,0-3.7,9.3,4.3,19.2"/>
	<path class="st0" d="M262.9,422.4L279,380c0,0,9.3-29.7,17-61.6c0,0,1.9-5.9,7.1-8.7l-1.6-0.8l-3.9,0.8l-4-0.3l-9.6,8.4l-11.8,22.9
		L262.9,422.4z"/>
	<path class="st0" d="M81.3,111.3l0.8,0.3c0,0,2.1-0.2,6,0.3l6.1,0.5c0,0,3.5,0.4,7.2-0.5c0,0,1.8-0.6,2,0.3c0,0,0.3,0.7-0.5,1.8
		c0,0-1.3,1.4,0.8,1.9l4.3,1.2c0,0,2.8,0.9,5.9,0.9c0,0,1.2,0,1.2,0.6c0,0,0,0.7-1.4,1.1l-2.1,1l5-0.6l0.4-2.5l-9.7-11.5l-1.7-5.4
		l-3.7-4.9l-5.5,0.5l-15.5,14.6L81.3,111.3z"/>
	<path class="st0" d="M80.9,108.3c0,0-1.1,3.8-4.6,6.7c0,0-0.8,1.1-0.1,1.5c0,0,2.8-0.2,6.5-3.1c0,0,2.4-1.2,2.1,1.1
		c0,0-0.8,2.1,0.6,2.5c0,0,3.4,0.9,7.6-6L80.9,108.3z"/>
	<path class="st0" d="M77.2,111c0,0,2.1,0.7,0.8,2.7l5.1-2.3l-1.8-2.5l-5.4,1.8L77.2,111z"/>
	<path class="st0" d="M90.5,114.2c0,0,1.5-1.8,3.6-1.7l2-0.3l-4.7-1l-1.7,3.5L90.5,114.2z"/>
	<path class="st0" d="M193.8,99.2c0,0-4.2-0.7-1.6-3.4c0,0,3.7-2.4,2.4-8.7l-3.6,0.9l1.8-2.6l3.4-1.3c0,0,3.5-6.1-4.9-10.7l0.6-2.8
		c0,0,3.8-2.2,3.3-6.4l-3,2.8l-0.2-2.1c0,0,3.2-4.6-0.6-7.2c0,0-1.2,4.2-4.4,4.7l-1.3-2.3c0,0,5.4-4.5,3.4-8.4c0,0-4.3,6.3-10.9,3.8
		c0,0,3.2-4.1-0.3-6.9l-2.2,1.7l-1.2-2.2c0,0-2.6,2.4-5,1l-1.8-1.2c0,0,0-4.7-4.3-7.4c0,0-3-1.5-6.1-4.8c0,0-2.9-3.5-6-4.7l7.4,19
		L177,66.8l8.1,7.3l-3.6,24l10.4,2.5L193.8,99.2z"/>
	<path class="st0" d="M173.9,111"/>
	<polygon class="st0" points="193.3,88.6 190.8,85.1 190,89.7 	"/>
</g>
</svg>
