<?xml version="1.0" standalone="no"?>
<!DOCTYPE svg PUBLIC "-//W3C//DTD SVG 20010904//EN"
 "http://www.w3.org/TR/2001/REC-SVG-20010904/DTD/svg10.dtd">
<svg version="1.0" xmlns="http://www.w3.org/2000/svg"
 width="792.000000pt" height="792.000000pt" viewBox="0 0 792.000000 792.000000"
 preserveAspectRatio="xMidYMid meet">
<metadata>
Created by potrace 1.11, written by Peter Selinger 2001-2013
</metadata>
<g transform="translate(0.000000,792.000000) scale(0.100000,-0.100000)"
fill="#000000" stroke="none">
<path d="M3333 7659 c-23 -4 -51 -13 -62 -18 -13 -7 -51 -9 -103 -5 -77 6 -88
4 -133 -19 -62 -31 -197 -156 -227 -208 -12 -21 -29 -41 -39 -44 -39 -13 -136
-124 -178 -205 -27 -51 -53 -88 -71 -98 -26 -15 -70 -92 -70 -122 0 -9 6 -25
14 -36 13 -18 13 -22 -5 -37 -18 -16 -23 -33 -20 -69 2 -14 -5 -18 -32 -18
-78 0 -101 -111 -28 -135 11 -3 23 -14 26 -25 7 -23 64 -58 114 -69 28 -6 53
-3 97 10 44 14 60 15 66 6 6 -10 63 -17 156 -17 13 0 36 8 50 18 43 30 59 32
77 12 15 -17 14 -21 -18 -64 -40 -52 -65 -121 -69 -186 -1 -26 -10 -57 -22
-73 -27 -37 -25 -86 5 -128 14 -18 25 -40 23 -46 -1 -7 -2 -18 -3 -24 -2 -17
-15 -10 -219 104 -106 60 -205 110 -220 112 -80 9 -122 -78 -64 -133 15 -15
33 -38 40 -52 7 -14 29 -34 50 -46 20 -11 75 -42 122 -68 109 -61 116 -67 99
-97 -7 -13 -29 -44 -50 -69 -127 -153 -139 -338 -29 -463 44 -49 47 -57 26
-57 -8 0 -25 -13 -38 -28 -13 -16 -38 -37 -56 -47 -17 -11 -38 -33 -46 -50 -8
-16 -28 -42 -44 -58 -18 -17 -38 -55 -53 -101 l-24 -74 -42 1 c-31 2 -48 -4
-67 -22 -14 -14 -26 -30 -26 -37 0 -7 -12 -24 -27 -38 -39 -36 -36 -90 7 -129
22 -19 29 -32 22 -40 -9 -12 -9 -17 6 -99 15 -83 59 -109 129 -77 20 9 41 15
45 13 16 -10 47 17 59 50 13 35 13 35 46 21 52 -22 108 -3 119 40 3 13 14 27
24 30 9 3 25 14 35 25 10 11 25 20 34 20 24 0 171 -61 171 -71 0 -5 -4 -9 -9
-9 -5 0 -40 -14 -78 -31 -37 -17 -84 -37 -103 -46 -233 -101 -503 -272 -555
-351 -37 -56 -52 -101 -54 -164 -6 -143 42 -211 313 -453 44 -38 91 -81 106
-95 15 -14 72 -65 126 -115 154 -140 212 -196 413 -396 230 -230 264 -268 359
-394 108 -144 143 -175 235 -209 78 -29 112 -87 123 -215 3 -35 15 -89 26
-120 28 -73 28 -159 0 -286 -13 -55 -25 -113 -28 -130 -3 -16 -18 -82 -34
-145 -34 -134 -37 -149 -51 -254 -10 -71 -8 -244 5 -306 7 -39 26 -141 32
-180 12 -71 53 -129 107 -149 47 -18 21 -30 -66 -30 -99 -1 -297 -9 -352 -16
-22 -2 -71 -7 -110 -10 -104 -10 -264 -42 -291 -60 -14 -9 -21 -21 -18 -30 6
-14 72 -39 134 -49 19 -3 46 -8 60 -11 14 -3 54 -8 90 -11 36 -3 76 -8 90 -10
151 -24 966 -24 1180 1 19 2 60 6 91 10 31 3 66 7 77 10 11 2 42 7 69 11 57 8
133 39 133 53 0 13 -41 40 -71 47 -58 14 -170 32 -234 39 -122 12 -129 13
-182 14 -30 1 -53 6 -53 12 0 29 -57 124 -110 184 -79 90 -81 115 -20 252 38
85 73 210 84 298 3 22 8 69 12 105 10 91 9 89 23 152 7 31 26 94 42 140 47
128 97 293 120 398 22 101 23 104 33 190 4 30 9 66 12 80 2 14 6 39 8 55 3 17
7 53 11 80 12 93 16 116 31 185 3 14 7 36 10 49 3 13 31 96 64 185 59 164 96
274 105 314 3 12 7 30 9 40 3 9 16 62 30 117 15 55 28 111 31 125 14 70 79
309 134 500 35 118 64 222 66 230 27 133 67 248 87 251 4 1 14 2 21 3 6 1 17
-1 22 -5 50 -36 173 -89 207 -89 94 0 146 82 103 164 -19 36 -51 61 -139 110
-39 21 -74 43 -77 48 -7 11 11 69 55 173 14 33 27 75 30 93 3 17 8 47 12 65
13 78 38 160 68 219 27 55 37 66 81 86 53 25 134 97 165 147 26 43 29 82 10
140 -13 42 -14 56 -4 85 7 20 11 71 10 120 -4 136 -55 218 -193 312 -42 28
-109 83 -150 124 -41 40 -96 89 -121 108 -26 20 -51 39 -57 44 -5 4 -50 34
-100 66 -49 33 -135 94 -190 135 -148 114 -248 172 -318 187 -106 22 -158 24
-264 10 -35 -5 -59 -4 -75 5 -12 7 -63 14 -113 15 -49 1 -95 3 -101 3 -11 1
-6 45 14 124 8 31 6 45 -12 82 -22 43 -23 45 -4 72 18 28 18 68 2 146 -6 27
-7 27 -24 12 -17 -16 -19 -15 -29 4 -6 11 -11 27 -11 35 0 21 -42 106 -52 106
-5 0 -16 -17 -25 -37 -10 -21 -19 -40 -21 -43 -2 -2 -23 17 -46 43 -47 51 -60
56 -75 30 -8 -15 -13 -13 -48 19 -162 152 -204 188 -239 205 -49 25 -97 32
-151 22z m1555 -1753 c20 -13 65 -51 100 -84 34 -34 85 -73 113 -88 l51 -26
-30 -31 c-54 -56 -64 -99 -48 -203 5 -30 1 -53 -12 -85 -34 -79 -61 -134 -77
-154 -13 -17 -17 -17 -30 -5 -34 35 -99 249 -110 362 -3 37 -8 80 -11 95 -2
15 -6 42 -9 58 -2 17 -7 52 -10 79 -4 27 -7 52 -8 55 -3 16 16 51 29 51 8 0
31 -11 52 -24z m-1748 -809 c22 -46 42 -99 45 -119 l6 -36 -43 10 c-32 7 -53
21 -83 54 -22 25 -62 58 -90 72 -28 15 -57 41 -68 60 l-19 33 66 -5 c37 -2 79
0 94 4 48 15 52 11 92 -73z m1037 -1039 c-4 -24 -9 -54 -12 -68 -7 -33 -12
-58 -25 -128 -10 -56 -15 -82 -25 -132 -2 -14 -7 -45 -10 -70 -3 -25 -8 -61
-10 -80 -20 -137 -35 -341 -35 -489 0 -59 -5 -110 -11 -118 -16 -18 -77 15
-113 63 -61 80 -130 137 -212 174 -101 47 -112 56 -184 155 -32 44 -107 127
-167 185 -133 129 -156 149 -246 210 -40 27 -77 58 -84 69 -11 18 -8 21 35 35
51 16 158 46 182 51 8 2 53 12 100 23 47 11 101 23 120 26 231 36 645 119 659
132 2 2 13 4 24 4 17 0 19 -5 14 -42z"/>
<path d="M2462 6315 c2 -12 11 -19 21 -19 9 1 15 -2 12 -6 -3 -5 -1 -11 5 -15
5 -3 10 3 10 14 0 19 -5 23 -26 20 -4 0 -11 5 -16 13 -7 9 -8 8 -6 -7z"/>
<path d="M2520 6285 c0 -19 39 -45 58 -38 11 5 13 3 7 -7 -6 -10 -4 -12 9 -7
9 4 14 3 11 -2 -3 -5 -1 -12 4 -15 5 -3 11 1 14 9 4 9 -11 23 -48 44 -38 20
-55 25 -55 16z"/>
<path d="M2630 6217 c0 -7 25 -25 55 -40 65 -32 65 -32 65 -12 0 8 -3 14 -7
14 -18 -3 -31 2 -53 21 -12 11 -27 17 -31 14 -5 -3 -9 0 -9 5 0 6 -4 11 -10
11 -5 0 -10 -6 -10 -13z"/>
</g>
</svg>
